999
dxflib 2.2.0.0
  0
SECTION
  2
HEADER
  9
$ACADVER
  1
AC1015
  9
$HANDSEED
  5
FFFF
  9
$INSUNITS
 70
4
  9
$DIMEXE
 40
1.25
  9
$TEXTSTYLE
  7
Standard
  9
$LIMMIN
 10
0.0
 20
0.0
  0
ENDSEC
  0
SECTION
  2
TABLES
  0
TABLE
  2
VPORT
  5
8
100
AcDbSymbolTable
 70
1
  0
VPORT
  5
30
100
AcDbSymbolTableRecord
100
AcDbViewportTableRecord
  2
*Active
 70
0
 10
0.0
 20
0.0
 11
1.0
 21
1.0
 12
286.30555555555549
 22
148.5
 13
0.0
 23
0.0
 14
10.0
 24
10.0
 15
10.0
 25
10.0
 16
0.0
 26
0.0
 36
1.0
 17
0.0
 27
0.0
 37
0.0
 40
297.0
 41
1.92798353909465
 42
50.0
 43
0.0
 44
0.0
 50
0.0
 51
0.0
 71
0
 72
100
 73
1
 74
3
 75
1
 76
1
 77
0
 78
0
281
0
 65
1
110
0.0
120
0.0
130
0.0
111
1.0
121
0.0
131
0.0
112
0.0
122
1.0
132
0.0
 79
0
146
0.0
  0
ENDTAB
  0
TABLE
  2
LTYPE
  5
5
100
AcDbSymbolTable
 70
25
  0
LTYPE
  5
14
100
AcDbSymbolTableRecord
100
AcDbLinetypeTableRecord
  2
BYBLOCK
 70
0
  3

 72
65
 73
0
 40
0.0
  0
LTYPE
  5
15
100
AcDbSymbolTableRecord
100
AcDbLinetypeTableRecord
  2
BYLAYER
 70
0
  3

 72
65
 73
0
 40
0.0
  0
LTYPE
  5
16
100
AcDbSymbolTableRecord
100
AcDbLinetypeTableRecord
  2
CONTINUOUS
 70
0
  3
Solid line
 72
65
 73
0
 40
0.0
  0
LTYPE
  5
31
100
AcDbSymbolTableRecord
100
AcDbLinetypeTableRecord
  2
ACAD_ISO02W100
 70
0
  3
ISO Dashed __ __ __ __ __ __ __ __ __ __ _
 72
65
 73
2
 40
15.0
 49
12.0
 74
0
 49
-3.0
 74
0
  0
LTYPE
  5
32
100
AcDbSymbolTableRecord
100
AcDbLinetypeTableRecord
  2
ACAD_ISO03W100
 70
0
  3
ISO Dashed with Distance __    __    __    _
 72
65
 73
2
 40
30.0
 49
12.0
 74
0
 49
-18.0
 74
0
  0
LTYPE
  5
33
100
AcDbSymbolTableRecord
100
AcDbLinetypeTableRecord
  2
ACAD_ISO04W100
 70
0
  3
ISO Long Dashed Dotted ____ . ____ . __
 72
65
 73
4
 40
30.0
 49
24.0
 74
0
 49
-3.0
 74
0
 49
0.0
 74
0
 49
-3.0
 74
0
  0
LTYPE
  5
34
100
AcDbSymbolTableRecord
100
AcDbLinetypeTableRecord
  2
ACAD_ISO05W100
 70
0
  3
ISO Long Dashed Double Dotted ____ .. __
 72
65
 73
6
 40
33.0
 49
24.0
 74
0
 49
-3.0
 74
0
 49
0.0
 74
0
 49
-3.0
 74
0
 49
0.0
 74
0
 49
-3.0
 74
0
  0
LTYPE
  5
35
100
AcDbSymbolTableRecord
100
AcDbLinetypeTableRecord
  2
BORDER
 70
0
  3
Border __ __ . __ __ . __ __ . __ __ . __ __ .
 72
65
 73
6
 40
44.450000000000003
 49
12.699999999999999
 74
0
 49
-6.3499999999999996
 74
0
 49
12.699999999999999
 74
0
 49
-6.3499999999999996
 74
0
 49
0.0
 74
0
 49
-6.3499999999999996
 74
0
  0
LTYPE
  5
36
100
AcDbSymbolTableRecord
100
AcDbLinetypeTableRecord
  2
BORDER2
 70
0
  3
Border (.5x) __.__.__.__.__.__.__.__.__.__.__.
 72
65
 73
6
 40
22.225000000000001
 49
6.3499999999999996
 74
0
 49
-3.1749999999999998
 74
0
 49
6.3499999999999996
 74
0
 49
-3.1749999999999998
 74
0
 49
0.0
 74
0
 49
-3.1749999999999998
 74
0
  0
LTYPE
  5
37
100
AcDbSymbolTableRecord
100
AcDbLinetypeTableRecord
  2
BORDERX2
 70
0
  3
Border (2x) ____  ____  .  ____  ____  .  ___
 72
65
 73
6
 40
88.900000000000006
 49
25.399999999999999
 74
0
 49
-12.699999999999999
 74
0
 49
25.399999999999999
 74
0
 49
-12.699999999999999
 74
0
 49
0.0
 74
0
 49
-12.699999999999999
 74
0
  0
LTYPE
  5
38
100
AcDbSymbolTableRecord
100
AcDbLinetypeTableRecord
  2
CENTER
 70
0
  3
Center ____ _ ____ _ ____ _ ____ _ ____ _ ____
 72
65
 73
4
 40
50.799999999999997
 49
31.75
 74
0
 49
-6.3499999999999996
 74
0
 49
6.3499999999999996
 74
0
 49
-6.3499999999999996
 74
0
  0
LTYPE
  5
39
100
AcDbSymbolTableRecord
100
AcDbLinetypeTableRecord
  2
CENTER2
 70
0
  3
Center (.5x) ___ _ ___ _ ___ _ ___ _ ___ _ ___
 72
65
 73
4
 40
28.574999999999999
 49
19.050000000000001
 74
0
 49
-3.1749999999999998
 74
0
 49
3.1749999999999998
 74
0
 49
-3.1749999999999998
 74
0
  0
LTYPE
  5
3A
100
AcDbSymbolTableRecord
100
AcDbLinetypeTableRecord
  2
CENTERX2
 70
0
  3
Center (2x) ________  __  ________  __  _____
 72
65
 73
4
 40
101.59999999999999
 49
63.5
 74
0
 49
-12.699999999999999
 74
0
 49
12.699999999999999
 74
0
 49
-12.699999999999999
 74
0
  0
LTYPE
  5
3B
100
AcDbSymbolTableRecord
100
AcDbLinetypeTableRecord
  2
DASHDOT
 70
0
  3
Dash dot __ . __ . __ . __ . __ . __ . __ . __
 72
65
 73
4
 40
25.399999999999999
 49
12.699999999999999
 74
0
 49
-6.3499999999999996
 74
0
 49
0.0
 74
0
 49
-6.3499999999999996
 74
0
  0
LTYPE
  5
3C
100
AcDbSymbolTableRecord
100
AcDbLinetypeTableRecord
  2
DASHDOT2
 70
0
  3
Dash dot (.5x) _._._._._._._._._._._._._._._.
 72
65
 73
4
 40
12.699999999999999
 49
6.3499999999999996
 74
0
 49
-3.1749999999999998
 74
0
 49
0.0
 74
0
 49
-3.1749999999999998
 74
0
  0
LTYPE
  5
3D
100
AcDbSymbolTableRecord
100
AcDbLinetypeTableRecord
  2
DASHDOTX2
 70
0
  3
Dash dot (2x) ____  .  ____  .  ____  .  ___
 72
65
 73
4
 40
50.799999999999997
 49
25.399999999999999
 74
0
 49
-12.699999999999999
 74
0
 49
0.0
 74
0
 49
-12.699999999999999
 74
0
  0
LTYPE
  5
3E
100
AcDbSymbolTableRecord
100
AcDbLinetypeTableRecord
  2
DASHED
 70
0
  3
Dashed __ __ __ __ __ __ __ __ __ __ __ __ __ _
 72
65
 73
2
 40
19.050000000000001
 49
12.699999999999999
 74
0
 49
-6.3499999999999996
 74
0
  0
LTYPE
  5
3F
100
AcDbSymbolTableRecord
100
AcDbLinetypeTableRecord
  2
DASHED2
 70
0
  3
Dashed (.5x) _ _ _ _ _ _ _ _ _ _ _ _ _ _ _ _ _
 72
65
 73
2
 40
9.5250000000000004
 49
6.3499999999999996
 74
0
 49
-3.1749999999999998
 74
0
  0
LTYPE
  5
40
100
AcDbSymbolTableRecord
100
AcDbLinetypeTableRecord
  2
DASHEDX2
 70
0
  3
Dashed (2x) ____  ____  ____  ____  ____  ___
 72
65
 73
2
 40
38.100000000000001
 49
25.399999999999999
 74
0
 49
-12.699999999999999
 74
0
  0
LTYPE
  5
41
100
AcDbSymbolTableRecord
100
AcDbLinetypeTableRecord
  2
DIVIDE
 70
0
  3
Divide ____ . . ____ . . ____ . . ____ . . ____
 72
65
 73
6
 40
31.75
 49
12.699999999999999
 74
0
 49
-6.3499999999999996
 74
0
 49
0.0
 74
0
 49
-6.3499999999999996
 74
0
 49
0.0
 74
0
 49
-6.3499999999999996
 74
0
  0
LTYPE
  5
42
100
AcDbSymbolTableRecord
100
AcDbLinetypeTableRecord
  2
DIVIDE2
 70
0
  3
Divide (.5x) __..__..__..__..__..__..__..__.._
 72
65
 73
6
 40
15.875
 49
6.3499999999999996
 74
0
 49
-3.1749999999999998
 74
0
 49
0.0
 74
0
 49
-3.1749999999999998
 74
0
 49
0.0
 74
0
 49
-3.1749999999999998
 74
0
  0
LTYPE
  5
43
100
AcDbSymbolTableRecord
100
AcDbLinetypeTableRecord
  2
DIVIDEX2
 70
0
  3
Divide (2x) ________  .  .  ________  .  .  _
 72
65
 73
6
 40
63.5
 49
25.399999999999999
 74
0
 49
-12.699999999999999
 74
0
 49
0.0
 74
0
 49
-12.699999999999999
 74
0
 49
0.0
 74
0
 49
-12.699999999999999
 74
0
  0
LTYPE
  5
44
100
AcDbSymbolTableRecord
100
AcDbLinetypeTableRecord
  2
DOT
 70
0
  3
Dot . . . . . . . . . . . . . . . . . . . . . .
 72
65
 73
2
 40
6.3499999999999996
 49
0.0
 74
0
 49
-6.3499999999999996
 74
0
  0
LTYPE
  5
45
100
AcDbSymbolTableRecord
100
AcDbLinetypeTableRecord
  2
DOT2
 70
0
  3
Dot (.5x) .....................................
 72
65
 73
2
 40
3.1749999999999998
 49
0.0
 74
0
 49
-3.1749999999999998
 74
0
  0
LTYPE
  5
46
100
AcDbSymbolTableRecord
100
AcDbLinetypeTableRecord
  2
DOTX2
 70
0
  3
Dot (2x) .  .  .  .  .  .  .  .  .  .  .  .  .
 72
65
 73
2
 40
12.699999999999999
 49
0.0
 74
0
 49
-12.699999999999999
 74
0
  0
ENDTAB
  0
TABLE
  2
LAYER
  5
2
100
AcDbSymbolTable
 70
3
  0
LAYER
  5
10
100
AcDbSymbolTableRecord
100
AcDbLayerTableRecord
  2
0
 70
0
 62
250
  6
CONTINUOUS
370
100
390
F
  0
LAYER
  5
47
100
AcDbSymbolTableRecord
100
AcDbLayerTableRecord
  2
color#ffffffff
 70
0
 62
7
  6
CONTINUOUS
370
100
390
F
  0
LAYER
  5
48
100
AcDbSymbolTableRecord
100
AcDbLayerTableRecord
  2
color#00000000
 70
0
 62
7
  6
CONTINUOUS
370
100
390
F
  0
ENDTAB
  0
TABLE
  2
STYLE
  5
3
100
AcDbSymbolTable
 70
1
  0
STYLE
  5
11
100
AcDbSymbolTableRecord
100
AcDbTextStyleTableRecord
  2
Standard
 70
0
 40
0.0
 41
0.75
 50
0.0
 71
0
 42
2.5
  3
txt
  4

  0
ENDTAB
  0
TABLE
  2
VIEW
  5
6
100
AcDbSymbolTable
 70
0
  0
ENDTAB
  0
TABLE
  2
UCS
  5
7
100
AcDbSymbolTable
 70
0
  0
ENDTAB
  0
TABLE
  2
APPID
  5
9
100
AcDbSymbolTable
 70
1
  0
APPID
  5
12
100
AcDbSymbolTableRecord
100
AcDbRegAppTableRecord
  2
ACAD
 70
0
  0
ENDTAB
  0
TABLE
  2
DIMSTYLE
  5
A
100
AcDbSymbolTable
 70
1
100
AcDbDimStyleTable
 71
0
  0
DIMSTYLE
105
27
100
AcDbSymbolTableRecord
100
AcDbDimStyleTableRecord
  2
Standard
 41
1.0
 42
1.0
 43
3.75
 44
1.0
 70
0
 73
0
 74
0
 77
1
 78
8
140
1.0
141
2.5
143
0.03937007874016
147
1.0
171
3
172
1
271
2
272
2
274
3
278
44
283
0
284
8
340
11
  0
ENDTAB
  0
TABLE
  2
BLOCK_RECORD
  5
1
100
AcDbSymbolTable
 70
1
  0
BLOCK_RECORD
  5
1F
100
AcDbSymbolTableRecord
100
AcDbBlockTableRecord
  2
*Model_Space
340
22
  0
BLOCK_RECORD
  5
1B
100
AcDbSymbolTableRecord
100
AcDbBlockTableRecord
  2
*Paper_Space
340
1E
  0
BLOCK_RECORD
  5
23
100
AcDbSymbolTableRecord
100
AcDbBlockTableRecord
  2
*Paper_Space0
340
26
  0
ENDTAB
  0
ENDSEC
  0
SECTION
  2
BLOCKS
  0
BLOCK
  5
20
100
AcDbEntity
  8
0
100
AcDbBlockBegin
  2
*Model_Space
 70
0
 10
0.0
 20
0.0
 30
0.0
  3
*Model_Space
  1

  0
ENDBLK
  5
21
100
AcDbEntity
  8
0
100
AcDbBlockEnd
  0
BLOCK
  5
1C
100
AcDbEntity
 67
1
  8
0
100
AcDbBlockBegin
  2
*Paper_Space
 70
0
 10
0.0
 20
0.0
 30
0.0
  3
*Paper_Space
  1

  0
ENDBLK
  5
1D
100
AcDbEntity
 67
1
  8
0
100
AcDbBlockEnd
  0
BLOCK
  5
24
100
AcDbEntity
  8
0
100
AcDbBlockBegin
  2
*Paper_Space0
 70
0
 10
0.0
 20
0.0
 30
0.0
  3
*Paper_Space0
  1

  0
ENDBLK
  5
25
100
AcDbEntity
  8
0
100
AcDbBlockEnd
  0
ENDSEC
  0
SECTION
  2
ENTITIES
  0
LINE
  5
49
100
AcDbEntity
100
AcDbLine
  8
color#ffffffff
 62
256
370
-1
  6
BYLAYER
 10
1.8864019911907397
 20
3.2378601047082358
 30
0.0
 11
1.9156242863960466
 21
3.272862818082376
 31
0.0
  0
LINE
  5
4A
100
AcDbEntity
100
AcDbLine
  8
color#ffffffff
 62
256
370
-1
  6
BYLAYER
 10
1.9156242863960466
 20
3.272862818082376
 30
0.0
 11
1.9467223504526459
 21
3.3062703540185048
 31
0.0
  0
LINE
  5
4B
100
AcDbEntity
100
AcDbLine
  8
color#ffffffff
 62
256
370
-1
  6
BYLAYER
 10
1.9467223504526459
 20
3.3062703540185048
 30
0.0
 11
1.9795862575245369
 21
3.3379979191185423
 31
0.0
  0
LINE
  5
4C
100
AcDbEntity
100
AcDbLine
  8
color#ffffffff
 62
256
370
-1
  6
BYLAYER
 10
1.9795862575245369
 20
3.3379979191185423
 30
0.0
 11
2.0141060817757173
 21
3.3679607199844108
 31
0.0
  0
LINE
  5
4D
100
AcDbEntity
100
AcDbLine
  8
color#ffffffff
 62
256
370
-1
  6
BYLAYER
 10
2.0141060817757173
 20
3.3679607199844108
 30
0.0
 11
2.0501718973701863
 21
3.396073963218031
 31
0.0
  0
LINE
  5
4E
100
AcDbEntity
100
AcDbLine
  8
color#ffffffff
 62
256
370
-1
  6
BYLAYER
 10
2.0501718973701863
 20
3.396073963218031
 30
0.0
 11
2.0876737784719435
 21
3.4222528554213234
 31
0.0
  0
LINE
  5
4F
100
AcDbEntity
100
AcDbLine
  8
color#ffffffff
 62
256
370
-1
  6
BYLAYER
 10
2.0876737784719435
 20
3.4222528554213234
 30
0.0
 11
2.1265017992449859
 21
3.4464126031962099
 31
0.0
  0
LINE
  5
50
100
AcDbEntity
100
AcDbLine
  8
color#ffffffff
 62
256
370
-1
  6
BYLAYER
 10
2.1265017992449859
 20
3.4464126031962099
 30
0.0
 11
2.1665460338533147
 21
3.4684684131446111
 31
0.0
  0
LINE
  5
51
100
AcDbEntity
100
AcDbLine
  8
color#ffffffff
 62
256
370
-1
  6
BYLAYER
 10
2.1665460338533147
 20
3.4684684131446111
 30
0.0
 11
2.207696556460927
 21
3.4883354918684479
 31
0.0
  0
LINE
  5
52
100
AcDbEntity
100
AcDbLine
  8
color#ffffffff
 62
256
370
-1
  6
BYLAYER
 10
2.207696556460927
 20
3.4883354918684479
 30
0.0
 11
2.2286523239407141
 21
3.4974217590842551
 31
0.0
  0
LINE
  5
53
100
AcDbEntity
100
AcDbLine
  8
color#ffffffff
 62
256
370
-1
  6
BYLAYER
 10
2.2286523239407141
 20
3.4974217590842551
 30
0.0
 11
2.2498434412318224
 21
3.5059290459696415
 31
0.0
  0
LINE
  5
54
100
AcDbEntity
100
AcDbLine
  8
color#ffffffff
 62
256
370
-1
  6
BYLAYER
 10
2.2498434412318224
 20
3.5059290459696415
 30
0.0
 11
2.2712561676047502
 21
3.5138467533498474
 31
0.0
  0
LINE
  5
55
100
AcDbEntity
100
AcDbLine
  8
color#ffffffff
 62
256
370
-1
  6
BYLAYER
 10
2.2712561676047502
 20
3.5138467533498474
 30
0.0
 11
2.2928767623299993
 21
3.5211642820501137
 31
0.0
  0
LINE
  5
56
100
AcDbEntity
100
AcDbLine
  8
color#ffffffff
 62
256
370
-1
  6
BYLAYER
 10
2.2928767623299993
 20
3.5211642820501137
 30
0.0
 11
2.3146914846780677
 21
3.5278710328956788
 31
0.0
  0
LINE
  5
57
100
AcDbEntity
100
AcDbLine
  8
color#ffffffff
 62
256
370
-1
  6
BYLAYER
 10
2.3146914846780677
 20
3.5278710328956788
 30
0.0
 11
2.3366865939194565
 21
3.5339564067117841
 31
0.0
  0
LINE
  5
58
100
AcDbEntity
100
AcDbLine
  8
color#ffffffff
 62
256
370
-1
  6
BYLAYER
 10
2.3366865939194565
 20
3.5339564067117841
 30
0.0
 11
2.3588483493246648
 21
3.5394098043236699
 31
0.0
  0
LINE
  5
59
100
AcDbEntity
100
AcDbLine
  8
color#ffffffff
 62
256
370
-1
  6
BYLAYER
 10
2.3588483493246648
 20
3.5394098043236699
 30
0.0
 11
2.381163010164193
 21
3.5442206265565752
 31
0.0
  0
LINE
  5
5A
100
AcDbEntity
100
AcDbLine
  8
color#ffffffff
 62
256
370
-1
  6
BYLAYER
 10
2.381163010164193
 20
3.5442206265565752
 30
0.0
 11
2.403616835708541
 21
3.5483782742357413
 31
0.0
  0
LINE
  5
5B
100
AcDbEntity
100
AcDbLine
  8
color#ffffffff
 62
256
370
-1
  6
BYLAYER
 10
2.403616835708541
 20
3.5483782742357413
 30
0.0
 11
2.4261960852282076
 21
3.5518721481864075
 31
0.0
  0
LINE
  5
5C
100
AcDbEntity
100
AcDbLine
  8
color#ffffffff
 62
256
370
-1
  6
BYLAYER
 10
2.4261960852282076
 20
3.5518721481864075
 30
0.0
 11
2.4488870179936937
 21
3.5546916492338148
 31
0.0
  0
LINE
  5
5D
100
AcDbEntity
100
AcDbLine
  8
color#ffffffff
 62
256
370
-1
  6
BYLAYER
 10
2.4488870179936937
 20
3.5546916492338148
 30
0.0
 11
2.4531232999198114
 21
3.5116069367521749
 31
0.0
  0
LINE
  5
5E
100
AcDbEntity
100
AcDbLine
  8
color#ffffffff
 62
256
370
-1
  6
BYLAYER
 10
2.4531232999198114
 20
3.5116069367521749
 30
0.0
 11
2.4545716367115618
 21
3.4684681870388605
 31
0.0
  0
LINE
  5
5F
100
AcDbEntity
100
AcDbLine
  8
color#ffffffff
 62
256
370
-1
  6
BYLAYER
 10
2.4545716367115618
 20
3.4684681870388605
 30
0.0
 11
2.4533107720767173
 21
3.4253893448782375
 31
0.0
  0
LINE
  5
60
100
AcDbEntity
100
AcDbLine
  8
color#ffffffff
 62
256
370
-1
  6
BYLAYER
 10
2.4533107720767173
 20
3.4253893448782375
 30
0.0
 11
2.449419449723047
 21
3.3824843550546686
 31
0.0
  0
LINE
  5
61
100
AcDbEntity
100
AcDbLine
  8
color#ffffffff
 62
256
370
-1
  6
BYLAYER
 10
2.449419449723047
 20
3.3824843550546686
 30
0.0
 11
2.4429764133583225
 21
3.3398671623525185
 31
0.0
  0
LINE
  5
62
100
AcDbEntity
100
AcDbLine
  8
color#ffffffff
 62
256
370
-1
  6
BYLAYER
 10
2.4429764133583225
 20
3.3398671623525185
 30
0.0
 11
2.4340604066903131
 21
3.2976517115561514
 31
0.0
  0
LINE
  5
63
100
AcDbEntity
100
AcDbLine
  8
color#ffffffff
 62
256
370
-1
  6
BYLAYER
 10
2.4340604066903131
 20
3.2976517115561514
 30
0.0
 11
2.4227501734267882
 21
3.2559519474499328
 31
0.0
  0
LINE
  5
64
100
AcDbEntity
100
AcDbLine
  8
color#ffffffff
 62
256
370
-1
  6
BYLAYER
 10
2.4227501734267882
 20
3.2559519474499328
 30
0.0
 11
2.4091244572755213
 21
3.2148818148182254
 31
0.0
  0
LINE
  5
65
100
AcDbEntity
100
AcDbLine
  8
color#ffffffff
 62
256
370
-1
  6
BYLAYER
 10
2.4091244572755213
 20
3.2148818148182254
 30
0.0
 11
2.3932620019442794
 21
3.1745552584453942
 31
0.0
  0
LINE
  5
66
100
AcDbEntity
100
AcDbLine
  8
color#ffffffff
 62
256
370
-1
  6
BYLAYER
 10
2.3932620019442794
 20
3.1745552584453942
 30
0.0
 11
2.3752415511408329
 21
3.1350862231158039
 31
0.0
  0
LINE
  5
67
100
AcDbEntity
100
AcDbLine
  8
color#ffffffff
 62
256
370
-1
  6
BYLAYER
 10
2.3752415511408329
 20
3.1350862231158039
 30
0.0
 11
2.3551418485729538
 21
3.0965886536138183
 31
0.0
  0
LINE
  5
68
100
AcDbEntity
100
AcDbLine
  8
color#ffffffff
 62
256
370
-1
  6
BYLAYER
 10
2.3551418485729538
 20
3.0965886536138183
 30
0.0
 11
2.333041637948412
 21
3.0591764947238018
 31
0.0
  0
LINE
  5
69
100
AcDbEntity
100
AcDbLine
  8
color#ffffffff
 62
256
370
-1
  6
BYLAYER
 10
2.333041637948412
 20
3.0591764947238018
 30
0.0
 11
2.3090196629749768
 21
3.0229636912301188
 31
0.0
  0
LINE
  5
6A
100
AcDbEntity
100
AcDbLine
  8
color#ffffffff
 62
256
370
-1
  6
BYLAYER
 10
2.3090196629749768
 20
3.0229636912301188
 30
0.0
 11
2.2831546673604191
 21
2.9880641879171339
 31
0.0
  0
LINE
  5
6B
100
AcDbEntity
100
AcDbLine
  8
color#ffffffff
 62
256
370
-1
  6
BYLAYER
 10
2.2831546673604191
 20
2.9880641879171339
 30
0.0
 11
2.2555253948125094
 21
2.9545919295692102
 31
0.0
  0
LINE
  5
6C
100
AcDbEntity
100
AcDbLine
  8
color#ffffffff
 62
256
370
-1
  6
BYLAYER
 10
2.2555253948125094
 20
2.9545919295692102
 30
0.0
 11
2.2262105890390167
 21
2.9226608609707139
 31
0.0
  0
LINE
  5
6D
100
AcDbEntity
100
AcDbLine
  8
color#ffffffff
 62
256
370
-1
  6
BYLAYER
 10
2.2262105890390167
 20
2.9226608609707139
 30
0.0
 11
2.1952889937477127
 21
2.8923849269060082
 31
0.0
  0
LINE
  5
6E
100
AcDbEntity
100
AcDbLine
  8
color#ffffffff
 62
256
370
-1
  6
BYLAYER
 10
2.1952889937477127
 20
2.8923849269060082
 30
0.0
 11
2.1628393526463676
 21
2.8638780721594572
 31
0.0
  0
LINE
  5
6F
100
AcDbEntity
100
AcDbLine
  8
color#ffffffff
 62
256
370
-1
  6
BYLAYER
 10
2.1628393526463676
 20
2.8638780721594572
 30
0.0
 11
2.1289404094427509
 21
2.837254241515426
 31
0.0
  0
LINE
  5
70
100
AcDbEntity
100
AcDbLine
  8
color#ffffffff
 62
256
370
-1
  6
BYLAYER
 10
2.1289404094427509
 20
2.837254241515426
 30
0.0
 11
2.0936709078446341
 21
2.8126273797582786
 31
0.0
  0
LINE
  5
71
100
AcDbEntity
100
AcDbLine
  8
color#ffffffff
 62
256
370
-1
  6
BYLAYER
 10
2.0936709078446341
 20
2.8126273797582786
 30
0.0
 11
2.0571095915597857
 21
2.7901114316723792
 31
0.0
  0
LINE
  5
72
100
AcDbEntity
100
AcDbLine
  8
color#ffffffff
 62
256
370
-1
  6
BYLAYER
 10
2.0571095915597857
 20
2.7901114316723792
 30
0.0
 11
2.0193352042959773
 21
2.7698203420420922
 31
0.0
  0
LINE
  5
73
100
AcDbEntity
100
AcDbLine
  8
color#ffffffff
 62
256
370
-1
  6
BYLAYER
 10
2.0193352042959773
 20
2.7698203420420922
 30
0.0
 11
1.9804264897609787
 21
2.7518680556517814
 31
0.0
  0
LINE
  5
74
100
AcDbEntity
100
AcDbLine
  8
color#ffffffff
 62
256
370
-1
  6
BYLAYER
 10
1.9804264897609787
 20
2.7518680556517814
 30
0.0
 11
1.94046219166256
 21
2.7363685172858121
 31
0.0
  0
LINE
  5
75
100
AcDbEntity
100
AcDbLine
  8
color#ffffffff
 62
256
370
-1
  6
BYLAYER
 10
1.94046219166256
 20
2.7363685172858121
 30
0.0
 11
1.8995210537084921
 21
2.7234356717285482
 31
0.0
  0
LINE
  5
76
100
AcDbEntity
100
AcDbLine
  8
color#ffffffff
 62
256
370
-1
  6
BYLAYER
 10
1.8995210537084921
 20
2.7234356717285482
 30
0.0
 11
1.8576818196065448
 21
2.7131834637643539
 31
0.0
  0
LINE
  5
77
100
AcDbEntity
100
AcDbLine
  8
color#ffffffff
 62
256
370
-1
  6
BYLAYER
 10
1.8576818196065448
 20
2.7131834637643539
 30
0.0
 11
1.8150232330644884
 21
2.7057258381775933
 31
0.0
  0
LINE
  5
78
100
AcDbEntity
100
AcDbLine
  8
color#ffffffff
 62
256
370
-1
  6
BYLAYER
 10
1.8150232330644884
 20
2.7057258381775933
 30
0.0
 11
1.7716240377900929
 21
2.701176739752631
 31
0.0
  0
LINE
  5
79
100
AcDbEntity
100
AcDbLine
  8
color#ffffffff
 62
256
370
-1
  6
BYLAYER
 10
1.7716240377900929
 20
2.701176739752631
 30
0.0
 11
1.7275629774911292
 21
2.6996501132738313
 31
0.0
  0
LINE
  5
7A
100
AcDbEntity
100
AcDbLine
  8
color#ffffffff
 62
256
370
-1
  6
BYLAYER
 10
1.7275629774911292
 20
2.6996501132738313
 30
0.0
 11
1.7246558496919351
 21
2.7195804644338799
 31
0.0
  0
LINE
  5
7B
100
AcDbEntity
100
AcDbLine
  8
color#ffffffff
 62
256
370
-1
  6
BYLAYER
 10
1.7246558496919351
 20
2.7195804644338799
 30
0.0
 11
1.7224981874040479
 21
2.7395074884354345
 31
0.0
  0
LINE
  5
7C
100
AcDbEntity
100
AcDbLine
  8
color#ffffffff
 62
256
370
-1
  6
BYLAYER
 10
1.7224981874040479
 20
2.7395074884354345
 30
0.0
 11
1.7210732590243718
 21
2.7594206709473905
 31
0.0
  0
LINE
  5
7D
100
AcDbEntity
100
AcDbLine
  8
color#ffffffff
 62
256
370
-1
  6
BYLAYER
 10
1.7210732590243718
 20
2.7594206709473905
 30
0.0
 11
1.7203643329498095
 21
2.7793094976386423
 31
0.0
  0
LINE
  5
7E
100
AcDbEntity
100
AcDbLine
  8
color#ffffffff
 62
256
370
-1
  6
BYLAYER
 10
1.7203643329498095
 20
2.7793094976386423
 30
0.0
 11
1.720354677577266
 21
2.7991634541780845
 31
0.0
  0
LINE
  5
7F
100
AcDbEntity
100
AcDbLine
  8
color#ffffffff
 62
256
370
-1
  6
BYLAYER
 10
1.720354677577266
 20
2.7991634541780845
 30
0.0
 11
1.7210275613036432
 21
2.8189720262346127
 31
0.0
  0
LINE
  5
80
100
AcDbEntity
100
AcDbLine
  8
color#ffffffff
 62
256
370
-1
  6
BYLAYER
 10
1.7210275613036432
 20
2.8189720262346127
 30
0.0
 11
1.722366252525845
 21
2.8387246994771207
 31
0.0
  0
LINE
  5
81
100
AcDbEntity
100
AcDbLine
  8
color#ffffffff
 62
256
370
-1
  6
BYLAYER
 10
1.722366252525845
 20
2.8387246994771207
 30
0.0
 11
1.7243540196407761
 21
2.858410959574504
 31
0.0
  0
LINE
  5
82
100
AcDbEntity
100
AcDbLine
  8
color#ffffffff
 62
256
370
-1
  6
BYLAYER
 10
1.7243540196407761
 20
2.858410959574504
 30
0.0
 11
1.7269741310453393
 21
2.8780202921956564
 31
0.0
  0
LINE
  5
83
100
AcDbEntity
100
AcDbLine
  8
color#ffffffff
 62
256
370
-1
  6
BYLAYER
 10
1.7269741310453393
 20
2.8780202921956564
 30
0.0
 11
1.7340444603109739
 21
2.9169661176848489
 31
0.0
  0
LINE
  5
84
100
AcDbEntity
100
AcDbLine
  8
color#ffffffff
 62
256
370
-1
  6
BYLAYER
 10
1.7340444603109739
 20
2.9169661176848489
 30
0.0
 11
1.7434433874979796
 21
2.955478061295858
 31
0.0
  0
LINE
  5
85
100
AcDbEntity
100
AcDbLine
  8
color#ffffffff
 62
256
370
-1
  6
BYLAYER
 10
1.7434433874979796
 20
2.955478061295858
 30
0.0
 11
1.7550370597815834
 21
2.9934720083798396
 31
0.0
  0
LINE
  5
86
100
AcDbEntity
100
AcDbLine
  8
color#ffffffff
 62
256
370
-1
  6
BYLAYER
 10
1.7550370597815834
 20
2.9934720083798396
 30
0.0
 11
1.7686916243370139
 21
3.030863844287953
 31
0.0
  0
LINE
  5
87
100
AcDbEntity
100
AcDbLine
  8
color#ffffffff
 62
256
370
-1
  6
BYLAYER
 10
1.7686916243370139
 20
3.030863844287953
 30
0.0
 11
1.7842732283394998
 21
3.0675694543713554
 31
0.0
  0
LINE
  5
88
100
AcDbEntity
100
AcDbLine
  8
color#ffffffff
 62
256
370
-1
  6
BYLAYER
 10
1.7842732283394998
 20
3.0675694543713554
 30
0.0
 11
1.8016480189642685
 21
3.1035047239812052
 31
0.0
  0
LINE
  5
89
100
AcDbEntity
100
AcDbLine
  8
color#ffffffff
 62
256
370
-1
  6
BYLAYER
 10
1.8016480189642685
 20
3.1035047239812052
 30
0.0
 11
1.8206821433865485
 21
3.1385855384686603
 31
0.0
  0
LINE
  5
8A
100
AcDbEntity
100
AcDbLine
  8
color#ffffffff
 62
256
370
-1
  6
BYLAYER
 10
1.8206821433865485
 20
3.1385855384686603
 30
0.0
 11
1.8520517778361143
 21
3.1894206560510105
 31
0.0
  0
LINE
  5
8B
100
AcDbEntity
100
AcDbLine
  8
color#ffffffff
 62
256
370
-1
  6
BYLAYER
 10
1.8520517778361143
 20
3.1894206560510105
 30
0.0
 11
1.8864019911907397
 21
3.2378601047082358
 31
0.0
  0
LINE
  5
8C
100
AcDbEntity
100
AcDbLine
  8
color#ffffffff
 62
256
370
-1
  6
BYLAYER
 10
0.6720092796527099
 20
2.5502558880336759
 30
0.0
 11
0.7085725092214315
 21
2.5759264287243484
 31
0.0
  0
LINE
  5
8D
100
AcDbEntity
100
AcDbLine
  8
color#ffffffff
 62
256
370
-1
  6
BYLAYER
 10
0.7085725092214315
 20
2.5759264287243484
 30
0.0
 11
0.7464339655417267
 21
2.5998706681375245
 31
0.0
  0
LINE
  5
8E
100
AcDbEntity
100
AcDbLine
  8
color#ffffffff
 62
256
370
-1
  6
BYLAYER
 10
0.7464339655417267
 20
2.5998706681375245
 30
0.0
 11
0.7854817871544982
 21
2.6219832706613473
 31
0.0
  0
LINE
  5
8F
100
AcDbEntity
100
AcDbLine
  8
color#ffffffff
 62
256
370
-1
  6
BYLAYER
 10
0.7854817871544982
 20
2.6219832706613473
 30
0.0
 11
0.8256041126006495
 21
2.6421589006839588
 31
0.0
  0
LINE
  5
90
100
AcDbEntity
100
AcDbLine
  8
color#ffffffff
 62
256
370
-1
  6
BYLAYER
 10
0.8256041126006495
 20
2.6421589006839588
 30
0.0
 11
0.866689080421083
 21
2.660292222593502
 31
0.0
  0
LINE
  5
91
100
AcDbEntity
100
AcDbLine
  8
color#ffffffff
 62
256
370
-1
  6
BYLAYER
 10
0.866689080421083
 20
2.660292222593502
 30
0.0
 11
0.9086248291567023
 21
2.6762779007781194
 31
0.0
  0
LINE
  5
92
100
AcDbEntity
100
AcDbLine
  8
color#ffffffff
 62
256
370
-1
  6
BYLAYER
 10
0.9086248291567023
 20
2.6762779007781194
 30
0.0
 11
0.9512994973484099
 21
2.6900105996259538
 31
0.0
  0
LINE
  5
93
100
AcDbEntity
100
AcDbLine
  8
color#ffffffff
 62
256
370
-1
  6
BYLAYER
 10
0.9512994973484099
 20
2.6900105996259538
 30
0.0
 11
0.994601223537109
 21
2.7013849835251471
 31
0.0
  0
LINE
  5
94
100
AcDbEntity
100
AcDbLine
  8
color#ffffffff
 62
256
370
-1
  6
BYLAYER
 10
0.994601223537109
 20
2.7013849835251471
 30
0.0
 11
1.0164522766743629
 21
2.7061548899902985
 31
0.0
  0
LINE
  5
95
100
AcDbEntity
100
AcDbLine
  8
color#ffffffff
 62
256
370
-1
  6
BYLAYER
 10
1.0164522766743629
 20
2.7061548899902985
 30
0.0
 11
1.0384181462637025
 21
2.7102957168638433
 31
0.0
  0
LINE
  5
96
100
AcDbEntity
100
AcDbLine
  8
color#ffffffff
 62
256
370
-1
  6
BYLAYER
 10
1.0384181462637025
 20
2.7102957168638433
 30
0.0
 11
1.0604848496227419
 21
2.713794297194299
 31
0.0
  0
LINE
  5
97
100
AcDbEntity
100
AcDbLine
  8
color#ffffffff
 62
256
370
-1
  6
BYLAYER
 10
1.0604848496227419
 20
2.713794297194299
 30
0.0
 11
1.0826384040690942
 21
2.7166374640301836
 31
0.0
  0
LINE
  5
98
100
AcDbEntity
100
AcDbLine
  8
color#ffffffff
 62
256
370
-1
  6
BYLAYER
 10
1.0826384040690942
 20
2.7166374640301836
 30
0.0
 11
1.1048648269203707
 21
2.7188120504200151
 31
0.0
  0
LINE
  5
99
100
AcDbEntity
100
AcDbLine
  8
color#ffffffff
 62
256
370
-1
  6
BYLAYER
 10
1.1048648269203707
 20
2.7188120504200151
 30
0.0
 11
1.1271501354941853
 21
2.7203048894123123
 31
0.0
  0
LINE
  5
9A
100
AcDbEntity
100
AcDbLine
  8
color#ffffffff
 62
256
370
-1
  6
BYLAYER
 10
1.1271501354941853
 20
2.7203048894123123
 30
0.0
 11
1.1494803471081516
 21
2.7211028140555906
 31
0.0
  0
LINE
  5
9B
100
AcDbEntity
100
AcDbLine
  8
color#ffffffff
 62
256
370
-1
  6
BYLAYER
 10
1.1494803471081516
 20
2.7211028140555906
 30
0.0
 11
1.1718414790798808
 21
2.7211926573983702
 31
0.0
  0
LINE
  5
9C
100
AcDbEntity
100
AcDbLine
  8
color#ffffffff
 62
256
370
-1
  6
BYLAYER
 10
1.1718414790798808
 20
2.7211926573983702
 30
0.0
 11
1.1942195487269867
 21
2.7205612524891674
 31
0.0
  0
LINE
  5
9D
100
AcDbEntity
100
AcDbLine
  8
color#ffffffff
 62
256
370
-1
  6
BYLAYER
 10
1.1942195487269867
 20
2.7205612524891674
 30
0.0
 11
1.2166005733670824
 21
2.7191954323765004
 31
0.0
  0
LINE
  5
9E
100
AcDbEntity
100
AcDbLine
  8
color#ffffffff
 62
256
370
-1
  6
BYLAYER
 10
1.2166005733670824
 20
2.7191954323765004
 30
0.0
 11
1.2389705703177802
 21
2.7170820301088878
 31
0.0
  0
LINE
  5
9F
100
AcDbEntity
100
AcDbLine
  8
color#ffffffff
 62
256
370
-1
  6
BYLAYER
 10
1.2389705703177802
 20
2.7170820301088878
 30
0.0
 11
1.2613155568966938
 21
2.7142078787348467
 31
0.0
  0
LINE
  5
A0
100
AcDbEntity
100
AcDbLine
  8
color#ffffffff
 62
256
370
-1
  6
BYLAYER
 10
1.2613155568966938
 20
2.7142078787348467
 30
0.0
 11
1.2836215504214348
 21
2.710559811302895
 31
0.0
  0
LINE
  5
A1
100
AcDbEntity
100
AcDbLine
  8
color#ffffffff
 62
256
370
-1
  6
BYLAYER
 10
1.2836215504214348
 20
2.710559811302895
 30
0.0
 11
1.3034696107310391
 21
2.7073722023200464
 31
0.0
  0
LINE
  5
A2
100
AcDbEntity
100
AcDbLine
  8
color#ffffffff
 62
256
370
-1
  6
BYLAYER
 10
1.3034696107310391
 20
2.7073722023200464
 30
0.0
 11
1.3427891315542242
 21
2.6993538274258366
 31
0.0
  0
LINE
  5
A3
100
AcDbEntity
100
AcDbLine
  8
color#ffffffff
 62
256
370
-1
  6
BYLAYER
 10
1.3427891315542242
 20
2.6993538274258366
 30
0.0
 11
1.3816796374601301
 21
2.689475713828656
 31
0.0
  0
LINE
  5
A4
100
AcDbEntity
100
AcDbLine
  8
color#ffffffff
 62
256
370
-1
  6
BYLAYER
 10
1.3816796374601301
 20
2.689475713828656
 30
0.0
 11
1.610926898915209
 21
2.613404939438297
 31
0.0
  0
LINE
  5
A5
100
AcDbEntity
100
AcDbLine
  8
color#ffffffff
 62
256
370
-1
  6
BYLAYER
 10
1.610926898915209
 20
2.613404939438297
 30
0.0
 11
1.6878881604335534
 21
2.5911839687909297
 31
0.0
  0
LINE
  5
A6
100
AcDbEntity
100
AcDbLine
  8
color#ffffffff
 62
256
370
-1
  6
BYLAYER
 10
1.6878881604335534
 20
2.5911839687909297
 30
0.0
 11
1.7268659118645315
 21
2.5824496157595118
 31
0.0
  0
LINE
  5
A7
100
AcDbEntity
100
AcDbLine
  8
color#ffffffff
 62
256
370
-1
  6
BYLAYER
 10
1.7268659118645315
 20
2.5824496157595118
 30
0.0
 11
1.7662920661072488
 21
2.5758291704456791
 31
0.0
  0
LINE
  5
A8
100
AcDbEntity
100
AcDbLine
  8
color#ffffffff
 62
256
370
-1
  6
BYLAYER
 10
1.7662920661072488
 20
2.5758291704456791
 30
0.0
 11
1.7862007135870424
 21
2.5734358396334991
 31
0.0
  0
LINE
  5
A9
100
AcDbEntity
100
AcDbLine
  8
color#ffffffff
 62
256
370
-1
  6
BYLAYER
 10
1.7862007135870424
 20
2.5734358396334991
 30
0.0
 11
1.8062543649346086
 21
2.5717199974914866
 31
0.0
  0
LINE
  5
AA
100
AcDbEntity
100
AcDbLine
  8
color#ffffffff
 62
256
370
-1
  6
BYLAYER
 10
1.8062543649346086
 20
2.5717199974914866
 30
0.0
 11
1.8264639878715603
 21
2.5707313145998976
 31
0.0
  0
LINE
  5
AB
100
AcDbEntity
100
AcDbLine
  8
color#ffffffff
 62
256
370
-1
  6
BYLAYER
 10
1.8264639878715603
 20
2.5707313145998976
 30
0.0
 11
1.8468405501195109
 21
2.5705194615389901
 31
0.0
  0
LINE
  5
AC
100
AcDbEntity
100
AcDbLine
  8
color#ffffffff
 62
256
370
-1
  6
BYLAYER
 10
1.8468405501195109
 20
2.5705194615389901
 30
0.0
 11
1.8603879984442315
 21
2.5707989783697238
 31
0.0
  0
LINE
  5
AD
100
AcDbEntity
100
AcDbLine
  8
color#ffffffff
 62
256
370
-1
  6
BYLAYER
 10
1.8603879984442315
 20
2.5707989783697238
 30
0.0
 11
1.9005201282441726
 21
2.5740569068640973
 31
0.0
  0
LINE
  5
AE
100
AcDbEntity
100
AcDbLine
  8
color#ffffffff
 62
256
370
-1
  6
BYLAYER
 10
1.9005201282441726
 20
2.5740569068640973
 30
0.0
 11
1.9529937148222443
 21
2.5832708577538699
 31
0.0
  0
LINE
  5
AF
100
AcDbEntity
100
AcDbLine
  8
color#ffffffff
 62
256
370
-1
  6
BYLAYER
 10
1.9529937148222443
 20
2.5832708577538699
 30
0.0
 11
2.21920100794103
 21
2.6720869940499159
 31
0.0
  0
LINE
  5
B0
100
AcDbEntity
100
AcDbLine
  8
color#ffffffff
 62
256
370
-1
  6
BYLAYER
 10
2.21920100794103
 20
2.6720869940499159
 30
0.0
 11
2.2812680261688154
 21
2.6900375751403391
 31
0.0
  0
LINE
  5
B1
100
AcDbEntity
100
AcDbLine
  8
color#ffffffff
 62
256
370
-1
  6
BYLAYER
 10
2.2812680261688154
 20
2.6900375751403391
 30
0.0
 11
2.3764420355721469
 21
2.7099238823120477
 31
0.0
  0
LINE
  5
B2
100
AcDbEntity
100
AcDbLine
  8
color#ffffffff
 62
256
370
-1
  6
BYLAYER
 10
2.3764420355721469
 20
2.7099238823120477
 30
0.0
 11
2.4569162299606946
 21
2.719138142924014
 31
0.0
  0
LINE
  5
B3
100
AcDbEntity
100
AcDbLine
  8
color#ffffffff
 62
256
370
-1
  6
BYLAYER
 10
2.4569162299606946
 20
2.719138142924014
 30
0.0
 11
2.5215733404486413
 21
2.7211014416148358
 31
0.0
  0
LINE
  5
B4
100
AcDbEntity
100
AcDbLine
  8
color#ffffffff
 62
256
370
-1
  6
BYLAYER
 10
2.5215733404486413
 20
2.7211014416148358
 30
0.0
 11
2.5861051266087309
 21
2.7178013293863179
 31
0.0
  0
LINE
  5
B5
100
AcDbEntity
100
AcDbLine
  8
color#ffffffff
 62
256
370
-1
  6
BYLAYER
 10
2.5861051266087309
 20
2.7178013293863179
 30
0.0
 11
2.6342150339775001
 21
2.7116188079761399
 31
0.0
  0
LINE
  5
B6
100
AcDbEntity
100
AcDbLine
  8
color#ffffffff
 62
256
370
-1
  6
BYLAYER
 10
2.6342150339775001
 20
2.7116188079761399
 30
0.0
 11
2.6819162294208905
 21
2.7020610880316958
 31
0.0
  0
LINE
  5
B7
100
AcDbEntity
100
AcDbLine
  8
color#ffffffff
 62
256
370
-1
  6
BYLAYER
 10
2.6819162294208905
 20
2.7020610880316958
 30
0.0
 11
2.7032324053975341
 21
2.696846295089752
 31
0.0
  0
LINE
  5
B8
100
AcDbEntity
100
AcDbLine
  8
color#ffffffff
 62
256
370
-1
  6
BYLAYER
 10
2.7032324053975341
 20
2.696846295089752
 30
0.0
 11
2.7452822489358812
 21
2.6847051217289057
 31
0.0
  0
LINE
  5
B9
100
AcDbEntity
100
AcDbLine
  8
color#ffffffff
 62
256
370
-1
  6
BYLAYER
 10
2.7452822489358812
 20
2.6847051217289057
 30
0.0
 11
2.7865206320967482
 21
2.6703628249159652
 31
0.0
  0
LINE
  5
BA
100
AcDbEntity
100
AcDbLine
  8
color#ffffffff
 62
256
370
-1
  6
BYLAYER
 10
2.7865206320967482
 20
2.6703628249159652
 30
0.0
 11
2.8269058158910649
 21
2.6539165964715523
 31
0.0
  0
LINE
  5
BB
100
AcDbEntity
100
AcDbLine
  8
color#ffffffff
 62
256
370
-1
  6
BYLAYER
 10
2.8269058158910649
 20
2.6539165964715523
 30
0.0
 11
2.8663960613297617
 21
2.6354636282162889
 31
0.0
  0
LINE
  5
BC
100
AcDbEntity
100
AcDbLine
  8
color#ffffffff
 62
256
370
-1
  6
BYLAYER
 10
2.8663960613297617
 20
2.6354636282162889
 30
0.0
 11
2.904949629423768
 21
2.6151011119707963
 31
0.0
  0
LINE
  5
BD
100
AcDbEntity
100
AcDbLine
  8
color#ffffffff
 62
256
370
-1
  6
BYLAYER
 10
2.904949629423768
 20
2.6151011119707963
 30
0.0
 11
2.9425247811840141
 21
2.5929262395556969
 31
0.0
  0
LINE
  5
BE
100
AcDbEntity
100
AcDbLine
  8
color#ffffffff
 62
256
370
-1
  6
BYLAYER
 10
2.9425247811840141
 20
2.5929262395556969
 30
0.0
 11
2.9790797776214299
 21
2.569036202791612
 31
0.0
  0
LINE
  5
BF
100
AcDbEntity
100
AcDbLine
  8
color#ffffffff
 62
256
370
-1
  6
BYLAYER
 10
2.9790797776214299
 20
2.569036202791612
 30
0.0
 11
3.0145728797469449
 21
2.5435281934991636
 31
0.0
  0
LINE
  5
C0
100
AcDbEntity
100
AcDbLine
  8
color#ffffffff
 62
256
370
-1
  6
BYLAYER
 10
3.0145728797469449
 20
2.5435281934991636
 30
0.0
 11
3.0489623485714876
 21
2.5164994034989729
 31
0.0
  0
LINE
  5
C1
100
AcDbEntity
100
AcDbLine
  8
color#ffffffff
 62
256
370
-1
  6
BYLAYER
 10
3.0489623485714876
 20
2.5164994034989729
 30
0.0
 11
3.0822064451059905
 21
2.4880470246116619
 31
0.0
  0
LINE
  5
C2
100
AcDbEntity
100
AcDbLine
  8
color#ffffffff
 62
256
370
-1
  6
BYLAYER
 10
3.0822064451059905
 20
2.4880470246116619
 30
0.0
 11
3.1142634303613819
 21
2.4582682486578533
 31
0.0
  0
LINE
  5
C3
100
AcDbEntity
100
AcDbLine
  8
color#ffffffff
 62
256
370
-1
  6
BYLAYER
 10
3.1142634303613819
 20
2.4582682486578533
 30
0.0
 11
3.1600317705575458
 21
2.411325697335065
 31
0.0
  0
LINE
  5
C4
100
AcDbEntity
100
AcDbLine
  8
color#ffffffff
 62
256
370
-1
  6
BYLAYER
 10
3.1600317705575458
 20
2.411325697335065
 30
0.0
 11
3.2028943285621887
 21
2.3619454566036526
 31
0.0
  0
LINE
  5
C5
100
AcDbEntity
100
AcDbLine
  8
color#ffffffff
 62
256
370
-1
  6
BYLAYER
 10
3.2028943285621887
 20
2.3619454566036526
 30
0.0
 11
3.1535638738363847
 21
2.331746473342609
 31
0.0
  0
LINE
  5
C6
100
AcDbEntity
100
AcDbLine
  8
color#ffffffff
 62
256
370
-1
  6
BYLAYER
 10
3.1535638738363847
 20
2.331746473342609
 30
0.0
 11
3.1062807308890812
 21
2.2983051377725445
 31
0.0
  0
LINE
  5
C7
100
AcDbEntity
100
AcDbLine
  8
color#ffffffff
 62
256
370
-1
  6
BYLAYER
 10
3.1062807308890812
 20
2.2983051377725445
 30
0.0
 11
3.0613510999693898
 21
2.2617502406681989
 31
0.0
  0
LINE
  5
C8
100
AcDbEntity
100
AcDbLine
  8
color#ffffffff
 62
256
370
-1
  6
BYLAYER
 10
3.0613510999693898
 20
2.2617502406681989
 30
0.0
 11
3.0328567293711615
 21
2.2357141532399538
 31
0.0
  0
LINE
  5
C9
100
AcDbEntity
100
AcDbLine
  8
color#ffffffff
 62
256
370
-1
  6
BYLAYER
 10
3.0328567293711615
 20
2.2357141532399538
 30
0.0
 11
3.0056351791178795
 21
2.2083896612592411
 31
0.0
  0
LINE
  5
CA
100
AcDbEntity
100
AcDbLine
  8
color#ffffffff
 62
256
370
-1
  6
BYLAYER
 10
3.0056351791178795
 20
2.2083896612592411
 30
0.0
 11
2.9797771752092794
 21
2.1798149249556129
 31
0.0
  0
LINE
  5
CB
100
AcDbEntity
100
AcDbLine
  8
color#ffffffff
 62
256
370
-1
  6
BYLAYER
 10
2.9797771752092794
 20
2.1798149249556129
 30
0.0
 11
2.9553734436450987
 21
2.1500281045586207
 31
0.0
  0
LINE
  5
CC
100
AcDbEntity
100
AcDbLine
  8
color#ffffffff
 62
256
370
-1
  6
BYLAYER
 10
2.9553734436450987
 20
2.1500281045586207
 30
0.0
 11
2.9325147104250719
 21
2.1190673602978176
 31
0.0
  0
LINE
  5
CD
100
AcDbEntity
100
AcDbLine
  8
color#ffffffff
 62
256
370
-1
  6
BYLAYER
 10
2.9325147104250719
 20
2.1190673602978176
 30
0.0
 11
2.9112917015489361
 21
2.086970852402755
 31
0.0
  0
LINE
  5
CE
100
AcDbEntity
100
AcDbLine
  8
color#ffffffff
 62
256
370
-1
  6
BYLAYER
 10
2.9112917015489361
 20
2.086970852402755
 30
0.0
 11
2.8917951430164277
 21
2.0537767411029844
 31
0.0
  0
LINE
  5
CF
100
AcDbEntity
100
AcDbLine
  8
color#ffffffff
 62
256
370
-1
  6
BYLAYER
 10
2.8917951430164277
 20
2.0537767411029844
 30
0.0
 11
2.8741157608272827
 21
2.0195231866280592
 31
0.0
  0
LINE
  5
D0
100
AcDbEntity
100
AcDbLine
  8
color#ffffffff
 62
256
370
-1
  6
BYLAYER
 10
2.8741157608272827
 20
2.0195231866280592
 30
0.0
 11
2.8583442809812394
 21
1.98424834920753
 31
0.0
  0
LINE
  5
D1
100
AcDbEntity
100
AcDbLine
  8
color#ffffffff
 62
256
370
-1
  6
BYLAYER
 10
2.8583442809812394
 20
1.98424834920753
 30
0.0
 11
2.8445714294780311
 21
1.9479903890709496
 31
0.0
  0
LINE
  5
D2
100
AcDbEntity
100
AcDbLine
  8
color#ffffffff
 62
256
370
-1
  6
BYLAYER
 10
2.8445714294780311
 20
1.9479903890709496
 30
0.0
 11
2.8365621206065041
 21
1.9245030950760598
 31
0.0
  0
LINE
  5
D3
100
AcDbEntity
100
AcDbLine
  8
color#ffffffff
 62
256
370
-1
  6
BYLAYER
 10
2.8365621206065041
 20
1.9245030950760598
 30
0.0
 11
2.8293587884206328
 21
1.9007837402953838
 31
0.0
  0
LINE
  5
D4
100
AcDbEntity
100
AcDbLine
  8
color#ffffffff
 62
256
370
-1
  6
BYLAYER
 10
2.8293587884206328
 20
1.9007837402953838
 30
0.0
 11
2.8229571373385163
 21
1.8768557911877946
 31
0.0
  0
LINE
  5
D5
100
AcDbEntity
100
AcDbLine
  8
color#ffffffff
 62
256
370
-1
  6
BYLAYER
 10
2.8229571373385163
 20
1.8768557911877946
 30
0.0
 11
2.817352871778251
 21
1.8527427142121651
 31
0.0
  0
LINE
  5
D6
100
AcDbEntity
100
AcDbLine
  8
color#ffffffff
 62
256
370
-1
  6
BYLAYER
 10
2.817352871778251
 20
1.8527427142121651
 30
0.0
 11
2.8125416961579361
 21
1.8284679758273685
 31
0.0
  0
LINE
  5
D7
100
AcDbEntity
100
AcDbLine
  8
color#ffffffff
 62
256
370
-1
  6
BYLAYER
 10
2.8125416961579361
 20
1.8284679758273685
 30
0.0
 11
2.8085193148956691
 21
1.8040550424922774
 31
0.0
  0
LINE
  5
D8
100
AcDbEntity
100
AcDbLine
  8
color#ffffffff
 62
256
370
-1
  6
BYLAYER
 10
2.8085193148956691
 20
1.8040550424922774
 30
0.0
 11
2.8052814324095485
 21
1.779527380665765
 31
0.0
  0
LINE
  5
D9
100
AcDbEntity
100
AcDbLine
  8
color#ffffffff
 62
256
370
-1
  6
BYLAYER
 10
2.8052814324095485
 20
1.779527380665765
 30
0.0
 11
2.802823753117671
 21
1.7549084568067042
 31
0.0
  0
LINE
  5
DA
100
AcDbEntity
100
AcDbLine
  8
color#ffffffff
 62
256
370
-1
  6
BYLAYER
 10
2.802823753117671
 20
1.7549084568067042
 30
0.0
 11
2.8011419814381364
 21
1.7302217373739681
 31
0.0
  0
LINE
  5
DB
100
AcDbEntity
100
AcDbLine
  8
color#ffffffff
 62
256
370
-1
  6
BYLAYER
 10
2.8011419814381364
 20
1.7302217373739681
 30
0.0
 11
2.8002318217890405
 21
1.7054906888264298
 31
0.0
  0
LINE
  5
DC
100
AcDbEntity
100
AcDbLine
  8
color#ffffffff
 62
256
370
-1
  6
BYLAYER
 10
2.8002318217890405
 20
1.7054906888264298
 30
0.0
 11
2.8000889785884837
 21
1.6807387776229623
 31
0.0
  0
LINE
  5
DD
100
AcDbEntity
100
AcDbLine
  8
color#ffffffff
 62
256
370
-1
  6
BYLAYER
 10
2.8000889785884837
 20
1.6807387776229623
 30
0.0
 11
2.8007091562545625
 21
1.655989470222438
 31
0.0
  0
LINE
  5
DE
100
AcDbEntity
100
AcDbLine
  8
color#ffffffff
 62
256
370
-1
  6
BYLAYER
 10
2.8007091562545625
 20
1.655989470222438
 30
0.0
 11
2.8020880592053761
 21
1.6312662330837309
 31
0.0
  0
LINE
  5
DF
100
AcDbEntity
100
AcDbLine
  8
color#ffffffff
 62
256
370
-1
  6
BYLAYER
 10
2.8020880592053761
 20
1.6312662330837309
 30
0.0
 11
2.8042213918590213
 21
1.6065925326657127
 31
0.0
  0
LINE
  5
E0
100
AcDbEntity
100
AcDbLine
  8
color#ffffffff
 62
256
370
-1
  6
BYLAYER
 10
2.8042213918590213
 20
1.6065925326657127
 30
0.0
 11
2.8071048586335965
 21
1.5819918354272575
 31
0.0
  0
LINE
  5
E1
100
AcDbEntity
100
AcDbLine
  8
color#ffffffff
 62
256
370
-1
  6
BYLAYER
 10
2.8071048586335965
 20
1.5819918354272575
 30
0.0
 11
2.8107341639471994
 21
1.5574876078272379
 31
0.0
  0
LINE
  5
E2
100
AcDbEntity
100
AcDbLine
  8
color#ffffffff
 62
256
370
-1
  6
BYLAYER
 10
2.8107341639471994
 20
1.5574876078272379
 30
0.0
 11
2.8151050122179293
 21
1.5331033163245269
 31
0.0
  0
LINE
  5
E3
100
AcDbEntity
100
AcDbLine
  8
color#ffffffff
 62
256
370
-1
  6
BYLAYER
 10
2.8151050122179293
 20
1.5331033163245269
 30
0.0
 11
2.8202131078638821
 21
1.5088624273779976
 31
0.0
  0
LINE
  5
E4
100
AcDbEntity
100
AcDbLine
  8
color#ffffffff
 62
256
370
-1
  6
BYLAYER
 10
2.8202131078638821
 20
1.5088624273779976
 30
0.0
 11
2.8260541553031571
 21
1.4847884074465227
 31
0.0
  0
LINE
  5
E5
100
AcDbEntity
100
AcDbLine
  8
color#ffffffff
 62
256
370
-1
  6
BYLAYER
 10
2.8260541553031571
 20
1.4847884074465227
 30
0.0
 11
2.8326238589538537
 21
1.4609047229889756
 31
0.0
  0
LINE
  5
E6
100
AcDbEntity
100
AcDbLine
  8
color#ffffffff
 62
256
370
-1
  6
BYLAYER
 10
2.8326238589538537
 20
1.4609047229889756
 30
0.0
 11
2.8399179232340668
 21
1.437234840464229
 31
0.0
  0
LINE
  5
E7
100
AcDbEntity
100
AcDbLine
  8
color#ffffffff
 62
256
370
-1
  6
BYLAYER
 10
2.8399179232340668
 20
1.437234840464229
 30
0.0
 11
2.8479320525618954
 21
1.4138022263311565
 31
0.0
  0
LINE
  5
E8
100
AcDbEntity
100
AcDbLine
  8
color#ffffffff
 62
256
370
-1
  6
BYLAYER
 10
2.8479320525618954
 20
1.4138022263311565
 30
0.0
 11
2.8566619513554401
 21
1.390630347048629
 31
0.0
  0
LINE
  5
E9
100
AcDbEntity
100
AcDbLine
  8
color#ffffffff
 62
256
370
-1
  6
BYLAYER
 10
2.8566619513554401
 20
1.390630347048629
 30
0.0
 11
2.8661033240327951
 21
1.3677426690755223
 31
0.0
  0
LINE
  5
EA
100
AcDbEntity
100
AcDbLine
  8
color#ffffffff
 62
256
370
-1
  6
BYLAYER
 10
2.8661033240327951
 20
1.3677426690755223
 30
0.0
 11
2.8762518750120609
 21
1.3451626588707084
 31
0.0
  0
LINE
  5
EB
100
AcDbEntity
100
AcDbLine
  8
color#ffffffff
 62
256
370
-1
  6
BYLAYER
 10
2.8762518750120609
 20
1.3451626588707084
 30
0.0
 11
2.8871033087113358
 21
1.3229137828930593
 31
0.0
  0
LINE
  5
EC
100
AcDbEntity
100
AcDbLine
  8
color#ffffffff
 62
256
370
-1
  6
BYLAYER
 10
2.8871033087113358
 20
1.3229137828930593
 30
0.0
 11
2.8986533295487154
 21
1.301019507601449
 31
0.0
  0
LINE
  5
ED
100
AcDbEntity
100
AcDbLine
  8
color#ffffffff
 62
256
370
-1
  6
BYLAYER
 10
2.8986533295487154
 20
1.301019507601449
 30
0.0
 11
2.9108976419423005
 21
1.2795032994547495
 31
0.0
  0
LINE
  5
EE
100
AcDbEntity
100
AcDbLine
  8
color#ffffffff
 62
256
370
-1
  6
BYLAYER
 10
2.9108976419423005
 20
1.2795032994547495
 30
0.0
 11
2.9238319503101859
 21
1.2583886249118359
 31
0.0
  0
LINE
  5
EF
100
AcDbEntity
100
AcDbLine
  8
color#ffffffff
 62
256
370
-1
  6
BYLAYER
 10
2.9238319503101859
 20
1.2583886249118359
 30
0.0
 11
2.9527989851766616
 21
1.2150733340104867
 31
0.0
  0
LINE
  5
F0
100
AcDbEntity
100
AcDbLine
  8
color#ffffffff
 62
256
370
-1
  6
BYLAYER
 10
2.9527989851766616
 20
1.2150733340104867
 30
0.0
 11
2.98479463990006
 21
1.1741678737194603
 31
0.0
  0
LINE
  5
F1
100
AcDbEntity
100
AcDbLine
  8
color#ffffffff
 62
256
370
-1
  6
BYLAYER
 10
2.98479463990006
 20
1.1741678737194603
 30
0.0
 11
3.0195910376455362
 21
1.1357241874893083
 31
0.0
  0
LINE
  5
F2
100
AcDbEntity
100
AcDbLine
  8
color#ffffffff
 62
256
370
-1
  6
BYLAYER
 10
3.0195910376455362
 20
1.1357241874893083
 30
0.0
 11
3.0569603015782425
 21
1.0997942187705831
 31
0.0
  0
LINE
  5
F3
100
AcDbEntity
100
AcDbLine
  8
color#ffffffff
 62
256
370
-1
  6
BYLAYER
 10
3.0569603015782425
 20
1.0997942187705831
 30
0.0
 11
3.0966745548633323
 21
1.0664299110138389
 31
0.0
  0
LINE
  5
F4
100
AcDbEntity
100
AcDbLine
  8
color#ffffffff
 62
256
370
-1
  6
BYLAYER
 10
3.0966745548633323
 20
1.0664299110138389
 30
0.0
 11
3.1385059206659593
 21
1.035683207669627
 31
0.0
  0
LINE
  5
F5
100
AcDbEntity
100
AcDbLine
  8
color#ffffffff
 62
256
370
-1
  6
BYLAYER
 10
3.1385059206659593
 20
1.035683207669627
 30
0.0
 11
3.1822265221512764
 21
1.0076060521885006
 31
0.0
  0
LINE
  5
F6
100
AcDbEntity
100
AcDbLine
  8
color#ffffffff
 62
256
370
-1
  6
BYLAYER
 10
3.1822265221512764
 20
1.0076060521885006
 30
0.0
 11
3.2430656073309625
 21
0.9744122536930004
 31
0.0
  0
LINE
  5
F7
100
AcDbEntity
100
AcDbLine
  8
color#ffffffff
 62
256
370
-1
  6
BYLAYER
 10
3.2430656073309625
 20
0.9744122536930004
 30
0.0
 11
3.3063180668538461
 21
0.9461797871934254
 31
0.0
  0
LINE
  5
F8
100
AcDbEntity
100
AcDbLine
  8
color#ffffffff
 62
256
370
-1
  6
BYLAYER
 10
3.3063180668538461
 20
0.9461797871934254
 30
0.0
 11
3.2489159979516833
 21
0.8201522339590058
 31
0.0
  0
LINE
  5
F9
100
AcDbEntity
100
AcDbLine
  8
color#ffffffff
 62
256
370
-1
  6
BYLAYER
 10
3.2489159979516833
 20
0.8201522339590058
 30
0.0
 11
3.1718482473463481
 21
0.6729515353180022
 31
0.0
  0
LINE
  5
FA
100
AcDbEntity
100
AcDbLine
  8
color#ffffffff
 62
256
370
-1
  6
BYLAYER
 10
3.1718482473463481
 20
0.6729515353180022
 30
0.0
 11
3.0861670277036408
 21
0.5305976221944656
 31
0.0
  0
LINE
  5
FB
100
AcDbEntity
100
AcDbLine
  8
color#ffffffff
 62
256
370
-1
  6
BYLAYER
 10
3.0861670277036408
 20
0.5305976221944656
 30
0.0
 11
2.9922068363599905
 21
0.3935646798320004
 31
0.0
  0
LINE
  5
FC
100
AcDbEntity
100
AcDbLine
  8
color#ffffffff
 62
256
370
-1
  6
BYLAYER
 10
2.9922068363599905
 20
0.3935646798320004
 30
0.0
 11
2.890302170651827
 21
0.2623268934742085
 31
0.0
  0
LINE
  5
FD
100
AcDbEntity
100
AcDbLine
  8
color#ffffffff
 62
256
370
-1
  6
BYLAYER
 10
2.890302170651827
 20
0.2623268934742085
 30
0.0
 11
2.8789894947898493
 21
0.249527985884009
 31
0.0
  0
LINE
  5
FE
100
AcDbEntity
100
AcDbLine
  8
color#ffffffff
 62
256
370
-1
  6
BYLAYER
 10
2.8789894947898493
 20
0.249527985884009
 30
0.0
 11
2.7941998049302676
 21
0.1625204162794635
 31
0.0
  0
LINE
  5
FF
100
AcDbEntity
100
AcDbLine
  8
color#ffffffff
 62
256
370
-1
  6
BYLAYER
 10
2.7941998049302676
 20
0.1625204162794635
 30
0.0
 11
2.7411700543805431
 21
0.1170423692498619
 31
0.0
  0
LINE
  5
100
100
AcDbEntity
100
AcDbLine
  8
color#ffffffff
 62
256
370
-1
  6
BYLAYER
 10
2.7411700543805431
 20
0.1170423692498619
 30
0.0
 11
2.6991135765530703
 21
0.0861881200453749
 31
0.0
  0
LINE
  5
101
100
AcDbEntity
100
AcDbLine
  8
color#ffffffff
 62
256
370
-1
  6
BYLAYER
 10
2.6991135765530703
 20
0.0861881200453749
 30
0.0
 11
2.6699579295033558
 21
0.0675449276813372
 31
0.0
  0
LINE
  5
102
100
AcDbEntity
100
AcDbLine
  8
color#ffffffff
 62
256
370
-1
  6
BYLAYER
 10
2.6699579295033558
 20
0.0675449276813372
 30
0.0
 11
2.6398890344905164
 21
0.0506771391807869
 31
0.0
  0
LINE
  5
103
100
AcDbEntity
100
AcDbLine
  8
color#ffffffff
 62
256
370
-1
  6
BYLAYER
 10
2.6398890344905164
 20
0.0506771391807869
 30
0.0
 11
2.6088907328019806
 21
0.0357856329828547
 31
0.0
  0
LINE
  5
104
100
AcDbEntity
100
AcDbLine
  8
color#ffffffff
 62
256
370
-1
  6
BYLAYER
 10
2.6088907328019806
 20
0.0357856329828547
 30
0.0
 11
2.5769468657251742
 21
0.0230712875266765
 31
0.0
  0
LINE
  5
105
100
AcDbEntity
100
AcDbLine
  8
color#ffffffff
 62
256
370
-1
  6
BYLAYER
 10
2.5769468657251742
 20
0.0230712875266765
 30
0.0
 11
2.5606152955684904
 21
0.0175933245889743
 31
0.0
  0
LINE
  5
106
100
AcDbEntity
100
AcDbLine
  8
color#ffffffff
 62
256
370
-1
  6
BYLAYER
 10
2.5606152955684904
 20
0.0175933245889743
 30
0.0
 11
2.544041274547522
 21
0.0127349812513869
 31
0.0
  0
LINE
  5
107
100
AcDbEntity
100
AcDbLine
  8
color#ffffffff
 62
256
370
-1
  6
BYLAYER
 10
2.544041274547522
 20
0.0127349812513869
 30
0.0
 11
2.5272227828232006
 21
0.0085213673188017
 31
0.0
  0
LINE
  5
108
100
AcDbEntity
100
AcDbLine
  8
color#ffffffff
 62
256
370
-1
  6
BYLAYER
 10
2.5272227828232006
 20
0.0085213673188017
 30
0.0
 11
2.5101578005564509
 21
0.0049775925961156
 31
0.0
  0
LINE
  5
109
100
AcDbEntity
100
AcDbLine
  8
color#ffffffff
 62
256
370
-1
  6
BYLAYER
 10
2.5101578005564509
 20
0.0049775925961156
 30
0.0
 11
2.492844307908205
 21
0.0021287668882167
 31
0.0
  0
LINE
  5
10A
100
AcDbEntity
100
AcDbLine
  8
color#ffffffff
 62
256
370
-1
  6
BYLAYER
 10
2.492844307908205
 20
0.0021287668882167
 30
0.0
 11
2.4752802850393874
 21
0.0
 31
0.0
  0
LINE
  5
10B
100
AcDbEntity
100
AcDbLine
  8
color#ffffffff
 62
256
370
-1
  6
BYLAYER
 10
2.4752802850393874
 20
0.0
 30
0.0
 11
2.4486974716589014
 21
0.0
 31
0.0
  0
LINE
  5
10C
100
AcDbEntity
100
AcDbLine
  8
color#ffffffff
 62
256
370
-1
  6
BYLAYER
 10
2.4486974716589014
 20
0.0
 30
0.0
 11
2.344035223008349
 21
0.0128802372172755
 31
0.0
  0
LINE
  5
10D
100
AcDbEntity
100
AcDbLine
  8
color#ffffffff
 62
256
370
-1
  6
BYLAYER
 10
2.344035223008349
 20
0.0128802372172755
 30
0.0
 11
2.1825518757794451
 21
0.0732197100519084
 31
0.0
  0
LINE
  5
10E
100
AcDbEntity
100
AcDbLine
  8
color#ffffffff
 62
256
370
-1
  6
BYLAYER
 10
2.1825518757794451
 20
0.0732197100519084
 30
0.0
 11
2.1471228036779606
 21
0.0892957214822883
 31
0.0
  0
LINE
  5
10F
100
AcDbEntity
100
AcDbLine
  8
color#ffffffff
 62
256
370
-1
  6
BYLAYER
 10
2.1471228036779606
 20
0.0892957214822883
 30
0.0
 11
2.1109380342884978
 21
0.1034605392593271
 31
0.0
  0
LINE
  5
110
100
AcDbEntity
100
AcDbLine
  8
color#ffffffff
 62
256
370
-1
  6
BYLAYER
 10
2.1109380342884978
 20
0.1034605392593271
 30
0.0
 11
2.0740919449682425
 21
0.115717137299071
 31
0.0
  0
LINE
  5
111
100
AcDbEntity
100
AcDbLine
  8
color#ffffffff
 62
256
370
-1
  6
BYLAYER
 10
2.0740919449682425
 20
0.115717137299071
 30
0.0
 11
2.0366789130743763
 21
0.1260684895175714
 31
0.0
  0
LINE
  5
112
100
AcDbEntity
100
AcDbLine
  8
color#ffffffff
 62
256
370
-1
  6
BYLAYER
 10
2.0366789130743763
 20
0.1260684895175714
 30
0.0
 11
1.9987933159640836
 21
0.1345175698308765
 31
0.0
  0
LINE
  5
113
100
AcDbEntity
100
AcDbLine
  8
color#ffffffff
 62
256
370
-1
  6
BYLAYER
 10
1.9987933159640836
 20
0.1345175698308765
 30
0.0
 11
1.9605295309945494
 21
0.1410673521550332
 31
0.0
  0
LINE
  5
114
100
AcDbEntity
100
AcDbLine
  8
color#ffffffff
 62
256
370
-1
  6
BYLAYER
 10
1.9605295309945494
 20
0.1410673521550332
 30
0.0
 11
1.9219819355229564
 21
0.1457208104060928
 31
0.0
  0
LINE
  5
115
100
AcDbEntity
100
AcDbLine
  8
color#ffffffff
 62
256
370
-1
  6
BYLAYER
 10
1.9219819355229564
 20
0.1457208104060928
 30
0.0
 11
1.8832449069064892
 21
0.1484809185001023
 31
0.0
  0
LINE
  5
116
100
AcDbEntity
100
AcDbLine
  8
color#ffffffff
 62
256
370
-1
  6
BYLAYER
 10
1.8832449069064892
 20
0.1484809185001023
 30
0.0
 11
1.8444128225023313
 21
0.1493506503531101
 31
0.0
  0
LINE
  5
117
100
AcDbEntity
100
AcDbLine
  8
color#ffffffff
 62
256
370
-1
  6
BYLAYER
 10
1.8444128225023313
 20
0.1493506503531101
 30
0.0
 11
1.8055800596676674
 21
0.1483329798811658
 31
0.0
  0
LINE
  5
118
100
AcDbEntity
100
AcDbLine
  8
color#ffffffff
 62
256
370
-1
  6
BYLAYER
 10
1.8055800596676674
 20
0.1483329798811658
 30
0.0
 11
1.7668409957596802
 21
0.1454308810003171
 31
0.0
  0
LINE
  5
119
100
AcDbEntity
100
AcDbLine
  8
color#ffffffff
 62
256
370
-1
  6
BYLAYER
 10
1.7668409957596802
 20
0.1454308810003171
 30
0.0
 11
1.7282900081355541
 21
0.1406473276266138
 31
0.0
  0
LINE
  5
11A
100
AcDbEntity
100
AcDbLine
  8
color#ffffffff
 62
256
370
-1
  6
BYLAYER
 10
1.7282900081355541
 20
0.1406473276266138
 30
0.0
 11
1.6900214741524731
 21
0.1339852936761032
 31
0.0
  0
LINE
  5
11B
100
AcDbEntity
100
AcDbLine
  8
color#ffffffff
 62
256
370
-1
  6
BYLAYER
 10
1.6900214741524731
 20
0.1339852936761032
 30
0.0
 11
1.6521297711676213
 21
0.125447753064835
 31
0.0
  0
LINE
  5
11C
100
AcDbEntity
100
AcDbLine
  8
color#ffffffff
 62
256
370
-1
  6
BYLAYER
 10
1.6521297711676213
 20
0.125447753064835
 30
0.0
 11
1.6333547242236508
 21
0.1204765971101824
 31
0.0
  0
LINE
  5
11D
100
AcDbEntity
100
AcDbLine
  8
color#ffffffff
 62
256
370
-1
  6
BYLAYER
 10
1.6333547242236508
 20
0.1204765971101824
 30
0.0
 11
1.4835319615505111
 21
0.0631741743425209
 31
0.0
  0
LINE
  5
11E
100
AcDbEntity
100
AcDbLine
  8
color#ffffffff
 62
256
370
-1
  6
BYLAYER
 10
1.4835319615505111
 20
0.0631741743425209
 30
0.0
 11
1.3588097589946579
 21
0.01590164477346
 31
0.0
  0
LINE
  5
11F
100
AcDbEntity
100
AcDbLine
  8
color#ffffffff
 62
256
370
-1
  6
BYLAYER
 10
1.3588097589946579
 20
0.01590164477346
 30
0.0
 11
1.319989035979078
 21
0.0065879989031675
 31
0.0
  0
LINE
  5
120
100
AcDbEntity
100
AcDbLine
  8
color#ffffffff
 62
256
370
-1
  6
BYLAYER
 10
1.319989035979078
 20
0.0065879989031675
 30
0.0
 11
1.2935289802578458
 21
0.002362999236837
 31
0.0
  0
LINE
  5
121
100
AcDbEntity
100
AcDbLine
  8
color#ffffffff
 62
256
370
-1
  6
BYLAYER
 10
1.2935289802578458
 20
0.002362999236837
 30
0.0
 11
1.2665232973414171
 21
0.0
 31
0.0
  0
LINE
  5
122
100
AcDbEntity
100
AcDbLine
  8
color#ffffffff
 62
256
370
-1
  6
BYLAYER
 10
1.2665232973414171
 20
0.0
 30
0.0
 11
1.1956320759119552
 21
0.0
 31
0.0
  0
LINE
  5
123
100
AcDbEntity
100
AcDbLine
  8
color#ffffffff
 62
256
370
-1
  6
BYLAYER
 10
1.1956320759119552
 20
0.0
 30
0.0
 11
1.173606937306211
 21
0.0035341044745607
 31
0.0
  0
LINE
  5
124
100
AcDbEntity
100
AcDbLine
  8
color#ffffffff
 62
256
370
-1
  6
BYLAYER
 10
1.173606937306211
 20
0.0035341044745607
 30
0.0
 11
1.1519710392574085
 21
0.0080283330436867
 31
0.0
  0
LINE
  5
125
100
AcDbEntity
100
AcDbLine
  8
color#ffffffff
 62
256
370
-1
  6
BYLAYER
 10
1.1519710392574085
 20
0.0080283330436867
 30
0.0
 11
1.1307205958474829
 21
0.0134481411445585
 31
0.0
  0
LINE
  5
126
100
AcDbEntity
100
AcDbLine
  8
color#ffffffff
 62
256
370
-1
  6
BYLAYER
 10
1.1307205958474829
 20
0.0134481411445585
 30
0.0
 11
1.1098518211583672
 21
0.0197589842143573
 31
0.0
  0
LINE
  5
127
100
AcDbEntity
100
AcDbLine
  8
color#ffffffff
 62
256
370
-1
  6
BYLAYER
 10
1.1098518211583672
 20
0.0197589842143573
 30
0.0
 11
1.0893609292719959
 21
0.0269263176902612
 31
0.0
  0
LINE
  5
128
100
AcDbEntity
100
AcDbLine
  8
color#ffffffff
 62
256
370
-1
  6
BYLAYER
 10
1.0893609292719959
 20
0.0269263176902612
 30
0.0
 11
1.0692441342703023
 21
0.0349155970094523
 31
0.0
  0
LINE
  5
129
100
AcDbEntity
100
AcDbLine
  8
color#ffffffff
 62
256
370
-1
  6
BYLAYER
 10
1.0692441342703023
 20
0.0349155970094523
 30
0.0
 11
1.0494976502352209
 21
0.0436922776091101
 31
0.0
  0
LINE
  5
12A
100
AcDbEntity
100
AcDbLine
  8
color#ffffffff
 62
256
370
-1
  6
BYLAYER
 10
1.0494976502352209
 20
0.0436922776091101
 30
0.0
 11
1.0301176912486851
 21
0.053221814926416
 31
0.0
  0
LINE
  5
12B
100
AcDbEntity
100
AcDbLine
  8
color#ffffffff
 62
256
370
-1
  6
BYLAYER
 10
1.0301176912486851
 20
0.053221814926416
 30
0.0
 11
1.0111004713926295
 21
0.0634696643985488
 31
0.0
  0
LINE
  5
12C
100
AcDbEntity
100
AcDbLine
  8
color#ffffffff
 62
256
370
-1
  6
BYLAYER
 10
1.0111004713926295
 20
0.0634696643985488
 30
0.0
 11
0.992442204748987
 21
0.0744012814626897
 31
0.0
  0
LINE
  5
12D
100
AcDbEntity
100
AcDbLine
  8
color#ffffffff
 62
256
370
-1
  6
BYLAYER
 10
0.992442204748987
 20
0.0744012814626897
 30
0.0
 11
0.9741391053996925
 21
0.0859821215560185
 31
0.0
  0
LINE
  5
12E
100
AcDbEntity
100
AcDbLine
  8
color#ffffffff
 62
256
370
-1
  6
BYLAYER
 10
0.9741391053996925
 20
0.0859821215560185
 30
0.0
 11
0.9561873874266795
 21
0.0981776401157164
 31
0.0
  0
LINE
  5
12F
100
AcDbEntity
100
AcDbLine
  8
color#ffffffff
 62
256
370
-1
  6
BYLAYER
 10
0.9561873874266795
 20
0.0981776401157164
 30
0.0
 11
0.9385832649118819
 21
0.110953292578963
 31
0.0
  0
LINE
  5
130
100
AcDbEntity
100
AcDbLine
  8
color#ffffffff
 62
256
370
-1
  6
BYLAYER
 10
0.9385832649118819
 20
0.110953292578963
 30
0.0
 11
0.9044026625846686
 21
0.1381068209648236
 31
0.0
  0
LINE
  5
131
100
AcDbEntity
100
AcDbLine
  8
color#ffffffff
 62
256
370
-1
  6
BYLAYER
 10
0.9044026625846686
 20
0.1381068209648236
 30
0.0
 11
0.8715670110735242
 21
0.1671663502110425
 31
0.0
  0
LINE
  5
132
100
AcDbEntity
100
AcDbLine
  8
color#ffffffff
 62
256
370
-1
  6
BYLAYER
 10
0.8715670110735242
 20
0.1671663502110425
 30
0.0
 11
0.8400460230339196
 21
0.1978555238150648
 31
0.0
  0
LINE
  5
133
100
AcDbEntity
100
AcDbLine
  8
color#ffffffff
 62
256
370
-1
  6
BYLAYER
 10
0.8400460230339196
 20
0.1978555238150648
 30
0.0
 11
0.8098094111213264
 21
0.2298979852743304
 31
0.0
  0
LINE
  5
134
100
AcDbEntity
100
AcDbLine
  8
color#ffffffff
 62
256
370
-1
  6
BYLAYER
 10
0.8098094111213264
 20
0.2298979852743304
 30
0.0
 11
0.7667964449244267
 21
0.2798945623424665
 31
0.0
  0
LINE
  5
135
100
AcDbEntity
100
AcDbLine
  8
color#ffffffff
 62
256
370
-1
  6
BYLAYER
 10
0.7667964449244267
 20
0.2798945623424665
 30
0.0
 11
0.7011009778504939
 21
0.3660735796126831
 31
0.0
  0
LINE
  5
136
100
AcDbEntity
100
AcDbLine
  8
color#ffffffff
 62
256
370
-1
  6
BYLAYER
 10
0.7011009778504939
 20
0.3660735796126831
 30
0.0
 11
0.6662368339909691
 21
0.413990370994409
 31
0.0
  0
LINE
  5
137
100
AcDbEntity
100
AcDbLine
  8
color#ffffffff
 62
256
370
-1
  6
BYLAYER
 10
0.6662368339909691
 20
0.413990370994409
 30
0.0
 11
0.6161775419950517
 21
0.4874504252641548
 31
0.0
  0
LINE
  5
138
100
AcDbEntity
100
AcDbLine
  8
color#ffffffff
 62
256
370
-1
  6
BYLAYER
 10
0.6161775419950517
 20
0.4874504252641548
 30
0.0
 11
0.5688851246283639
 21
0.5627253668993278
 31
0.0
  0
LINE
  5
139
100
AcDbEntity
100
AcDbLine
  8
color#ffffffff
 62
256
370
-1
  6
BYLAYER
 10
0.5688851246283639
 20
0.5627253668993278
 30
0.0
 11
0.5244524687277401
 21
0.6397173734698688
 31
0.0
  0
LINE
  5
13A
100
AcDbEntity
100
AcDbLine
  8
color#ffffffff
 62
256
370
-1
  6
BYLAYER
 10
0.5244524687277401
 20
0.6397173734698688
 30
0.0
 11
0.482972461130015
 21
0.7183286225457211
 31
0.0
  0
LINE
  5
13B
100
AcDbEntity
100
AcDbLine
  8
color#ffffffff
 62
256
370
-1
  6
BYLAYER
 10
0.482972461130015
 20
0.7183286225457211
 30
0.0
 11
0.4445379886720226
 21
0.7984612916968261
 31
0.0
  0
LINE
  5
13C
100
AcDbEntity
100
AcDbLine
  8
color#ffffffff
 62
256
370
-1
  6
BYLAYER
 10
0.4445379886720226
 20
0.7984612916968261
 30
0.0
 11
0.4092419381905972
 21
0.8800175584931284
 31
0.0
  0
LINE
  5
13D
100
AcDbEntity
100
AcDbLine
  8
color#ffffffff
 62
256
370
-1
  6
BYLAYER
 10
0.4092419381905972
 20
0.8800175584931284
 30
0.0
 11
0.3771771965225735
 21
0.9628996005045695
 31
0.0
  0
LINE
  5
13E
100
AcDbEntity
100
AcDbLine
  8
color#ffffffff
 62
256
370
-1
  6
BYLAYER
 10
0.3771771965225735
 20
0.9628996005045695
 30
0.0
 11
0.3484366505047858
 21
1.0470095953010916
 31
0.0
  0
LINE
  5
13F
100
AcDbEntity
100
AcDbLine
  8
color#ffffffff
 62
256
370
-1
  6
BYLAYER
 10
0.3484366505047858
 20
1.0470095953010916
 30
0.0
 11
0.3231131869740682
 21
1.1322497204526378
 31
0.0
  0
LINE
  5
140
100
AcDbEntity
100
AcDbLine
  8
color#ffffffff
 62
256
370
-1
  6
BYLAYER
 10
0.3231131869740682
 20
1.1322497204526378
 30
0.0
 11
0.3002930441150434
 21
1.2245131355766812
 31
0.0
  0
LINE
  5
141
100
AcDbEntity
100
AcDbLine
  8
color#ffffffff
 62
256
370
-1
  6
BYLAYER
 10
0.3002930441150434
 20
1.2245131355766812
 30
0.0
 11
0.287206096466064
 21
1.2867206656781138
 31
0.0
  0
LINE
  5
142
100
AcDbEntity
100
AcDbLine
  8
color#ffffffff
 62
256
370
-1
  6
BYLAYER
 10
0.287206096466064
 20
1.2867206656781138
 30
0.0
 11
0.2759570074994317
 21
1.3493794930607674
 31
0.0
  0
LINE
  5
143
100
AcDbEntity
100
AcDbLine
  8
color#ffffffff
 62
256
370
-1
  6
BYLAYER
 10
0.2759570074994317
 20
1.3493794930607674
 30
0.0
 11
0.2666629263094759
 21
1.4123974130956982
 31
0.0
  0
LINE
  5
144
100
AcDbEntity
100
AcDbLine
  8
color#ffffffff
 62
256
370
-1
  6
BYLAYER
 10
0.2666629263094759
 20
1.4123974130956982
 30
0.0
 11
0.2594410019905258
 21
1.475682221153962
 31
0.0
  0
LINE
  5
145
100
AcDbEntity
100
AcDbLine
  8
color#ffffffff
 62
256
370
-1
  6
BYLAYER
 10
0.2594410019905258
 20
1.475682221153962
 30
0.0
 11
0.2544083836369109
 21
1.5391417126066145
 31
0.0
  0
LINE
  5
146
100
AcDbEntity
100
AcDbLine
  8
color#ffffffff
 62
256
370
-1
  6
BYLAYER
 10
0.2544083836369109
 20
1.5391417126066145
 30
0.0
 11
0.2516822203429604
 21
1.6026836828247113
 31
0.0
  0
LINE
  5
147
100
AcDbEntity
100
AcDbLine
  8
color#ffffffff
 62
256
370
-1
  6
BYLAYER
 10
0.2516822203429604
 20
1.6026836828247113
 30
0.0
 11
0.2513796612030037
 21
1.6662159271793082
 31
0.0
  0
LINE
  5
148
100
AcDbEntity
100
AcDbLine
  8
color#ffffffff
 62
256
370
-1
  6
BYLAYER
 10
0.2513796612030037
 20
1.6662159271793082
 30
0.0
 11
0.2521738422827508
 21
1.6979495882112501
 31
0.0
  0
LINE
  5
149
100
AcDbEntity
100
AcDbLine
  8
color#ffffffff
 62
256
370
-1
  6
BYLAYER
 10
0.2521738422827508
 20
1.6979495882112501
 30
0.0
 11
0.2536178553113698
 21
1.7296462410414621
 31
0.0
  0
LINE
  5
14A
100
AcDbEntity
100
AcDbLine
  8
color#ffffffff
 62
256
370
-1
  6
BYLAYER
 10
0.2536178553113698
 20
1.7296462410414621
 30
0.0
 11
0.2557263439256521
 21
1.7612943600913273
 31
0.0
  0
LINE
  5
14B
100
AcDbEntity
100
AcDbLine
  8
color#ffffffff
 62
256
370
-1
  6
BYLAYER
 10
0.2557263439256521
 20
1.7612943600913273
 30
0.0
 11
0.2585139517623885
 21
1.7928824197822277
 31
0.0
  0
LINE
  5
14C
100
AcDbEntity
100
AcDbLine
  8
color#ffffffff
 62
256
370
-1
  6
BYLAYER
 10
0.2585139517623885
 20
1.7928824197822277
 30
0.0
 11
0.2619953224583702
 21
1.8243988945355458
 31
0.0
  0
LINE
  5
14D
100
AcDbEntity
100
AcDbLine
  8
color#ffffffff
 62
256
370
-1
  6
BYLAYER
 10
0.2619953224583702
 20
1.8243988945355458
 30
0.0
 11
0.2661850996503886
 21
1.8558322587726614
 31
0.0
  0
LINE
  5
14E
100
AcDbEntity
100
AcDbLine
  8
color#ffffffff
 62
256
370
-1
  6
BYLAYER
 10
0.2661850996503886
 20
1.8558322587726614
 30
0.0
 11
0.2710979269752347
 21
1.8871709869149587
 31
0.0
  0
LINE
  5
14F
100
AcDbEntity
100
AcDbLine
  8
color#ffffffff
 62
256
370
-1
  6
BYLAYER
 10
0.2710979269752347
 20
1.8871709869149587
 30
0.0
 11
0.2767484480696997
 21
1.9184035533838193
 31
0.0
  0
LINE
  5
150
100
AcDbEntity
100
AcDbLine
  8
color#ffffffff
 62
256
370
-1
  6
BYLAYER
 10
0.2767484480696997
 20
1.9184035533838193
 30
0.0
 11
0.2831513065705748
 21
1.9495184326006236
 31
0.0
  0
LINE
  5
151
100
AcDbEntity
100
AcDbLine
  8
color#ffffffff
 62
256
370
-1
  6
BYLAYER
 10
0.2831513065705748
 20
1.9495184326006236
 30
0.0
 11
0.2903211461146511
 21
1.9805040989867555
 31
0.0
  0
LINE
  5
152
100
AcDbEntity
100
AcDbLine
  8
color#ffffffff
 62
256
370
-1
  6
BYLAYER
 10
0.2903211461146511
 20
1.9805040989867555
 30
0.0
 11
0.2982726103387197
 21
2.0113490269635963
 31
0.0
  0
LINE
  5
153
100
AcDbEntity
100
AcDbLine
  8
color#ffffffff
 62
256
370
-1
  6
BYLAYER
 10
0.2982726103387197
 20
2.0113490269635963
 30
0.0
 11
0.307020342879572
 21
2.0420416909525283
 31
0.0
  0
LINE
  5
154
100
AcDbEntity
100
AcDbLine
  8
color#ffffffff
 62
256
370
-1
  6
BYLAYER
 10
0.307020342879572
 20
2.0420416909525283
 30
0.0
 11
0.3134273394295752
 21
2.0631286427303417
 31
0.0
  0
LINE
  5
155
100
AcDbEntity
100
AcDbLine
  8
color#ffffffff
 62
256
370
-1
  6
BYLAYER
 10
0.3134273394295752
 20
2.0631286427303417
 30
0.0
 11
0.3278576107622366
 21
2.1046670016771092
 31
0.0
  0
LINE
  5
156
100
AcDbEntity
100
AcDbLine
  8
color#ffffffff
 62
256
370
-1
  6
BYLAYER
 10
0.3278576107622366
 20
2.1046670016771092
 30
0.0
 11
0.3443679855133594
 21
2.1453251958642108
 31
0.0
  0
LINE
  5
157
100
AcDbEntity
100
AcDbLine
  8
color#ffffffff
 62
256
370
-1
  6
BYLAYER
 10
0.3443679855133594
 20
2.1453251958642108
 30
0.0
 11
0.3628685426128501
 21
2.1850638989542244
 31
0.0
  0
LINE
  5
158
100
AcDbEntity
100
AcDbLine
  8
color#ffffffff
 62
256
370
-1
  6
BYLAYER
 10
0.3628685426128501
 20
2.1850638989542244
 30
0.0
 11
0.3832693609906147
 21
2.223843784609727
 31
0.0
  0
LINE
  5
159
100
AcDbEntity
100
AcDbLine
  8
color#ffffffff
 62
256
370
-1
  6
BYLAYER
 10
0.3832693609906147
 20
2.223843784609727
 30
0.0
 11
0.4054805195765596
 21
2.2616255264932965
 31
0.0
  0
LINE
  5
15A
100
AcDbEntity
100
AcDbLine
  8
color#ffffffff
 62
256
370
-1
  6
BYLAYER
 10
0.4054805195765596
 20
2.2616255264932965
 30
0.0
 11
0.4294120973005912
 21
2.29836979826751
 31
0.0
  0
LINE
  5
15B
100
AcDbEntity
100
AcDbLine
  8
color#ffffffff
 62
256
370
-1
  6
BYLAYER
 10
0.4294120973005912
 20
2.29836979826751
 30
0.0
 11
0.4549741730926155
 21
2.3340372735949435
 31
0.0
  0
LINE
  5
15C
100
AcDbEntity
100
AcDbLine
  8
color#ffffffff
 62
256
370
-1
  6
BYLAYER
 10
0.4549741730926155
 20
2.3340372735949435
 30
0.0
 11
0.482076825882539
 21
2.3685886261381763
 31
0.0
  0
LINE
  5
15D
100
AcDbEntity
100
AcDbLine
  8
color#ffffffff
 62
256
370
-1
  6
BYLAYER
 10
0.482076825882539
 20
2.3685886261381763
 30
0.0
 11
0.5106301346002675
 21
2.4019845295597855
 31
0.0
  0
LINE
  5
15E
100
AcDbEntity
100
AcDbLine
  8
color#ffffffff
 62
256
370
-1
  6
BYLAYER
 10
0.5106301346002675
 20
2.4019845295597855
 30
0.0
 11
0.5405441781757079
 21
2.4341856575223475
 31
0.0
  0
LINE
  5
15F
100
AcDbEntity
100
AcDbLine
  8
color#ffffffff
 62
256
370
-1
  6
BYLAYER
 10
0.5405441781757079
 20
2.4341856575223475
 30
0.0
 11
0.5717290355387661
 21
2.4651526836884403
 31
0.0
  0
LINE
  5
160
100
AcDbEntity
100
AcDbLine
  8
color#ffffffff
 62
256
370
-1
  6
BYLAYER
 10
0.5717290355387661
 20
2.4651526836884403
 30
0.0
 11
0.6206923950943066
 21
2.5092032557060873
 31
0.0
  0
LINE
  5
161
100
AcDbEntity
100
AcDbLine
  8
color#ffffffff
 62
256
370
-1
  6
BYLAYER
 10
0.6206923950943066
 20
2.5092032557060873
 30
0.0
 11
0.6720092796527099
 21
2.5502558880336759
 31
0.0
  0
ENDSEC
  0
SECTION
  2
OBJECTS
  0
DICTIONARY
  5
C
100
AcDbDictionary
280
0
281
1
  3
ACAD_GROUP
350
D
  3
ACAD_LAYOUT
350
1A
  3
ACAD_MLINESTYLE
350
17
  3
ACAD_PLOTSETTINGS
350
19
  3
ACAD_PLOTSTYLENAME
350
E
  3
AcDbVariableDictionary
350
162
  0
DICTIONARY
  5
D
100
AcDbDictionary
280
0
281
1
  0
ACDBDICTIONARYWDFLT
  5
E
100
AcDbDictionary
281
1
  3
Normal
350
F
100
AcDbDictionaryWithDefault
340
F
  0
ACDBPLACEHOLDER
  5
F
  0
DICTIONARY
  5
17
100
AcDbDictionary
280
0
281
1
  3
Standard
350
18
  0
MLINESTYLE
  5
18
100
AcDbMlineStyle
  2
STANDARD
 70
0
  3

 62
256
 51
90.0
 52
90.0
 71
2
 49
0.5
 62
256
  6
BYLAYER
 49
-0.5
 62
256
  6
BYLAYER
  0
DICTIONARY
  5
19
100
AcDbDictionary
280
0
281
1
  0
DICTIONARY
  5
1A
100
AcDbDictionary
281
1
  3
Layout1
350
1E
  3
Layout2
350
26
  3
Model
350
22
  0
LAYOUT
  5
1E
100
AcDbPlotSettings
  1

  2
C:\Program Files\AutoCAD 2002\plotters\DWF ePlot (optimized for plotting).pc3
  4

  6

 40
0.0
 41
0.0
 42
0.0
 43
0.0
 44
0.0
 45
0.0
 46
0.0
 47
0.0
 48
0.0
 49
0.0
140
0.0
141
0.0
142
1.0
143
1.0
 70
688
 72
0
 73
0
 74
5
  7

 75
16
147
1.0
148
0.0
149
0.0
100
AcDbLayout
  1
Layout1
 70
1
 71
1
 10
0.0
 20
0.0
 11
420.0
 21
297.0
 12
0.0
 22
0.0
 32
0.0
 14
100000000000000000000.0
 24
100000000000000000000.0
 34
100000000000000000000.0
 15
-100000000000000000000.0
 25
-100000000000000000000.0
 35
-100000000000000000000.0
146
0.0
 13
0.0
 23
0.0
 33
0.0
 16
1.0
 26
0.0
 36
0.0
 17
0.0
 27
1.0
 37
0.0
 76
0
330
1B
  0
LAYOUT
  5
22
100
AcDbPlotSettings
  1

  2
C:\Program Files\AutoCAD 2002\plotters\DWF ePlot (optimized for plotting).pc3
  4

  6

 40
0.0
 41
0.0
 42
0.0
 43
0.0
 44
0.0
 45
0.0
 46
0.0
 47
0.0
 48
0.0
 49
0.0
140
0.0
141
0.0
142
1.0
143
1.0
 70
1712
 72
0
 73
0
 74
0
  7

 75
0
147
1.0
148
0.0
149
0.0
100
AcDbLayout
  1
Model
 70
1
 71
0
 10
0.0
 20
0.0
 11
12.0
 21
9.0
 12
0.0
 22
0.0
 32
0.0
 14
0.0
 24
0.0
 34
0.0
 15
0.0
 25
0.0
 35
0.0
146
0.0
 13
0.0
 23
0.0
 33
0.0
 16
1.0
 26
0.0
 36
0.0
 17
0.0
 27
1.0
 37
0.0
 76
0
330
1F
  0
LAYOUT
  5
26
100
AcDbPlotSettings
  1

  2
C:\Program Files\AutoCAD 2002\plotters\DWF ePlot (optimized for plotting).pc3
  4

  6

 40
0.0
 41
0.0
 42
0.0
 43
0.0
 44
0.0
 45
0.0
 46
0.0
 47
0.0
 48
0.0
 49
0.0
140
0.0
141
0.0
142
1.0
143
1.0
 70
688
 72
0
 73
0
 74
5
  7

 75
16
147
1.0
148
0.0
149
0.0
100
AcDbLayout
  1
Layout2
 70
1
 71
2
 10
0.0
 20
0.0
 11
12.0
 21
9.0
 12
0.0
 22
0.0
 32
0.0
 14
0.0
 24
0.0
 34
0.0
 15
0.0
 25
0.0
 35
0.0
146
0.0
 13
0.0
 23
0.0
 33
0.0
 16
1.0
 26
0.0
 36
0.0
 17
0.0
 27
1.0
 37
0.0
 76
0
330
23
  0
DICTIONARY
  5
162
100
AcDbDictionary
281
1
  3
DIMASSOC
350
164
  3
HIDETEXT
350
163
  0
DICTIONARYVAR
  5
163
100
DictionaryVariables
280
0
  1
2
  0
DICTIONARYVAR
  5
164
100
DictionaryVariables
280
0
  1
1
  0
ENDSEC
  0
EOF
